<svg xmlns="http://www.w3.org/2000/svg" viewBox="0 0 121.69 122.31"><defs><style>.cls-1{fill:#b0c7ed;}.cls-2,.cls-4{fill:#1143a8;}.cls-3{fill:#d88282;}.cls-4{fill-rule:evenodd;}</style></defs><title>Clock</title><g id="Слой_2" data-name="Слой 2"><g id="Icons"><g id="Watch"><polygon class="cls-1" points="51.5 70.21 51.5 33.79 61.4 34.84 72.34 40.67 80.82 49.31 86.51 60.12 88.28 71.84 87.07 78.11 84.44 86.44 78.45 94.72 77.7 95.51 51.5 70.21"/><path class="cls-2" d="M51.5,121.71A51.5,51.5,0,1,1,103,70.21a51.55,51.55,0,0,1-51.5,51.5m0-98.86A47.37,47.37,0,1,0,98.87,70.21,47.41,47.41,0,0,0,51.5,22.85"/><path class="cls-2" d="M51.5,5.32a65.64,65.64,0,0,1,36.91,11.5,65,65,0,0,1,23.37,29.26,64.92,64.92,0,0,1-16.12,71.69c-2.5,2.35,1.26,6.1,3.76,3.76A70.49,70.49,0,0,0,120.8,81.44a71,71,0,0,0-6-41.72C103.28,15.59,78.1.08,51.5,0c-3.43,0-3.43,5.31,0,5.32"/><path class="cls-2" d="M51.5,107.82A37.61,37.61,0,1,1,89.11,70.21,37.66,37.66,0,0,1,51.5,107.82M51.5,35A35.25,35.25,0,1,0,86.75,70.21,35.28,35.28,0,0,0,51.5,35"/><path class="cls-2" d="M56.85,70.21a5.35,5.35,0,1,1-5.35-5.35,5.34,5.34,0,0,1,5.35,5.35"/><path class="cls-2" d="M24.76,70.21a2.17,2.17,0,1,1-2.16-2.16,2.16,2.16,0,0,1,2.16,2.16"/><path class="cls-2" d="M29.09,83.44a2.17,2.17,0,1,1-2.16-2.16,2.16,2.16,0,0,1,2.16,2.16"/><path class="cls-2" d="M53.67,99.39a2.17,2.17,0,1,1-2.17-2.17,2.17,2.17,0,0,1,2.17,2.17"/><path class="cls-2" d="M39.31,94a2.17,2.17,0,1,1-2.16-2.16A2.17,2.17,0,0,1,39.31,94"/><path class="cls-2" d="M52.68,70.21V42.46a1.18,1.18,0,0,0-2.36,0V70.21a1.18,1.18,0,0,0,2.36,0"/><path class="cls-2" d="M47.75,47.88l4.59-4.58H50.67l4.58,4.58a1.18,1.18,0,0,0,1.67-1.67l-4.58-4.59a1.2,1.2,0,0,0-1.67,0l-4.59,4.59a1.18,1.18,0,0,0,1.67,1.67"/><path class="cls-2" d="M50.67,71.05,70.29,90.67A1.18,1.18,0,0,0,72,89L52.34,69.38a1.18,1.18,0,0,0-1.67,1.67"/><path class="cls-2" d="M69.94,83v6.8l1.19-1.19h-6.8a1.19,1.19,0,0,0,0,2.37h6.8a1.2,1.2,0,0,0,1.18-1.18V83a1.19,1.19,0,0,0-2.37,0"/><line class="cls-3" x1="51.5" y1="70.21" x2="71.13" y2="50.59"/><rect class="cls-2" x="58.57" y="61.33" width="2.58" height="1.77" transform="translate(-26.46 60.55) rotate(-45)"/><rect class="cls-2" x="55.31" y="64.6" width="2.58" height="1.77" transform="translate(-29.73 59.2) rotate(-45)"/><rect class="cls-2" x="52.05" y="67.86" width="2.58" height="1.77" transform="translate(-32.99 57.85) rotate(-45)"/><rect class="cls-2" x="68.39" y="51.52" width="2.58" height="1.77" transform="translate(-16.66 64.59) rotate(-44.98)"/><rect class="cls-2" x="65.12" y="54.79" width="2.58" height="1.77" transform="translate(-19.92 63.26) rotate(-45)"/><rect class="cls-2" x="61.86" y="58.04" width="2.58" height="1.77" transform="translate(-23.17 61.92) rotate(-45)"/><rect class="cls-2" x="64.07" y="49.84" width="2.96" height="1.78"/><polygon class="cls-4" points="72.34 49.84 69.39 49.84 69.39 51.62 70.57 51.62 70.57 52.79 72.34 52.79 72.34 49.84"/><rect class="cls-2" x="70.57" y="55.15" width="1.77" height="2.95"/><line class="cls-3" x1="50.98" y1="70.28" x2="78.73" y2="70.28"/><rect class="cls-2" x="61.25" y="69.65" width="2.58" height="1.77"/><rect class="cls-2" x="56.63" y="69.65" width="2.58" height="1.77"/><rect class="cls-2" x="52.03" y="69.65" width="2.58" height="1.77"/><rect class="cls-2" x="75.13" y="69.65" width="2.58" height="1.77"/><rect class="cls-2" x="70.51" y="69.65" width="2.58" height="1.77"/><rect class="cls-2" x="65.9" y="69.65" width="2.58" height="1.77"/><rect class="cls-2" x="73.8" y="64.96" width="1.78" height="2.96" transform="translate(-25.1 72.23) rotate(-44.98)"/><polygon class="cls-4" points="80.12 70.61 78.03 68.52 76.78 69.78 77.61 70.61 76.78 71.44 78.03 72.7 80.12 70.61"/><rect class="cls-2" x="73.21" y="73.9" width="2.95" height="1.77" transform="translate(-31.01 74.76) rotate(-45.02)"/><path class="cls-2" d="M111.75,117H97.45l2.65,2.66V105.34c0-3.43-5.31-3.43-5.31,0v14.31a2.68,2.68,0,0,0,2.66,2.66h14.3c3.43,0,3.43-5.32,0-5.32"/><path class="cls-2" d="M29.09,55.67a2.17,2.17,0,1,1-2.16-2.16,2.16,2.16,0,0,1,2.16,2.16"/><path class="cls-2" d="M38.28,45.32a2.17,2.17,0,1,1-2.16-2.16,2.17,2.17,0,0,1,2.16,2.16"/></g></g></g></svg>