<svg xmlns="http://www.w3.org/2000/svg" viewBox="0 0 158.44 107.32"><defs><style>.cls-1{fill:#b0c7ed;}.cls-2{fill:#1143a8;}</style></defs><title>Cloud</title><g id="Слой_2" data-name="Слой 2"><g id="Icons"><g id="Cloud"><path class="cls-1" d="M65.48,39.41v10L83,59l17.5-9.55v-10L83,49ZM83,14,55.48,29,83,44l22.5-12.28V49h5V29Z"/><path class="cls-1" d="M32.25,46.3A29.87,29.87,0,0,0,3.45,83.91a28,28,0,0,1,5.77,8.2c2,4,5.24,4.89,9.35,6.5a10.17,10.17,0,0,1,6.33,6.47A29.85,29.85,0,1,0,32.25,46.3Zm20.68,18h-8.8A47.16,47.16,0,0,0,40,53.66,23.93,23.93,0,0,1,52.93,64.29ZM32.28,52.47A41.83,41.83,0,0,1,38,64.29H26.58A41.83,41.83,0,0,1,32.28,52.47ZM9.15,82.29a23.47,23.47,0,0,1,0-12H19.29a49.55,49.55,0,0,0-.42,6,49.55,49.55,0,0,0,.42,6Zm2.47,6h8.81a46.69,46.69,0,0,0,4.12,10.63A23.86,23.86,0,0,1,11.62,88.29Zm8.81-24H11.62A23.9,23.9,0,0,1,24.55,53.66,46.69,46.69,0,0,0,20.43,64.29Zm11.85,35.82a41.83,41.83,0,0,1-5.7-11.82H38A41.83,41.83,0,0,1,32.28,100.11Zm7-17.82h-14a44.14,44.14,0,0,1-.48-6,43.75,43.75,0,0,1,.48-6h14a43.75,43.75,0,0,1,.48,6A44.14,44.14,0,0,1,39.3,82.29ZM40,98.92a47.16,47.16,0,0,0,4.12-10.63h8.8A23.93,23.93,0,0,1,40,98.92Zm5.26-16.63a49.55,49.55,0,0,0,.42-6,49.55,49.55,0,0,0-.42-6H55.41a23.47,23.47,0,0,1,0,12Z"/><path class="cls-2" d="M96.32,49.6l-7.14-7.14,7.14-7.14-2.17-2.18-9.32,9.32,9.32,9.31Zm8.08,0,7.14-7.14-7.14-7.14,2.17-2.18,9.31,9.32-9.31,9.31Z"/><path class="cls-2" d="M138.86,89.15V57H96V89.15H91.67v4.29h51.48V89.15Zm-17.16,0h-8.58V87h8.58Zm12.87-6.44H100.25V61.27h34.32Z"/><path class="cls-2" d="M66,11.54s-18.88.09-18.94.14c-.64.56-1.29,1.14-1.95,1.75-.83.76-1.63,1.52-2.39,2.27H66L49.4,26.08l-8.94-5.59c-2-.1-2,2.83-2.55,2.57L49.4,30.24,66,19.85V40.63H32.78V27.22c-.33-.26-4.14-.58-4.14,1.35q0,6,0,12.06a4.17,4.17,0,0,0,4.15,4.15H66a4.17,4.17,0,0,0,4.16-4.15V15.7A4.17,4.17,0,0,0,66,11.54Z"/><path class="cls-2" d="M77.79,62l-1.53,1.53a7,7,0,0,1,0,10l1.53,1.53a8.81,8.81,0,0,0,0-13m-3.21,3.22L73,66.79a3,3,0,0,1,0,3.52l1.54,1.53a4.63,4.63,0,0,0,0-6.58M68.45,51.77H53.13a3.08,3.08,0,0,0-3.07,3.07V82.41a3.08,3.08,0,0,0,3.07,3.07H68.45a3.07,3.07,0,0,0,3.06-3.07V54.84a3.07,3.07,0,0,0-3.06-3.07m0,29.11H53.13V56.37H68.45Z"/><path class="cls-2" d="M128.6,40.45A50.92,50.92,0,0,0,88.28.82c-21.58-4-43.56,6.94-53.79,26.24l2.16-1.23A40.84,40.84,0,0,0,.64,74c3.4,19.7,21.5,33.32,41,33.32h77.84c4.49,0,8.86,0,13.27-1.15,10.64-2.68,19.07-10.7,23.23-20.68s2.79-21.95-2.95-31.06a34.87,34.87,0,0,0-26.88-15.81c-3.21-.26-3.19,4.74,0,5A29.32,29.32,0,0,1,145,93.45a30,30,0,0,1-21.94,8.87H45.24c-5,0-9.76-.09-14.61-1.47a35.86,35.86,0,0,1-7.51-65.61,35.33,35.33,0,0,1,7.44-3.16,38.76,38.76,0,0,1,4-.95c1.41-.27,3.45-.05,4.25-1.54A46.22,46.22,0,0,1,65.31,7.15a45.41,45.41,0,0,1,58.46,34.63c.65,3.16,5.47,1.82,4.83-1.33"/></g></g></g></svg>