<svg xmlns="http://www.w3.org/2000/svg" viewBox="0 0 229.3 226.94"><defs><style>.cls-1{fill:#e11e25;}.cls-2{fill:#433a96;}.cls-3{fill:#fdd304;}.cls-4{fill:#4cab47;}</style></defs><title>eastfest-logo</title><g id="Слой_2" data-name="Слой 2"><g id="Логотипы"><g id="Easyfest"><path class="cls-1" d="M4.09,213.2c88.5,18.52,146.73,18.09,220,.07,5.34-1.32,5.4-9.76,0-8.54-96.32,21.9-141.21,11.65-220-.07-5.44-.81-5.54,8.53,0,8.54Z"/><path class="cls-2" d="M4,126.85c11.73,4,24.8,4.76,33.71-5.21,6.52-7.3,8.42-17.61,10-26.93.28-1.6.56-3.2.94-4.77,0,.11.6-1.61.28-1-1.09,2.2,0-.12,1.73-.33,1.52-.19,3.3,12.22,3.63,13.6,2.29,9.49,12.19,12.78,20.43,7.55,8.69-5.51,8.51-19.38,8.77-28.32.17-5.93.12-11.86.59-17.78a34.46,34.46,0,0,1,1.37-7.26c.63-2.07,2.22-3.21,2.09-3.39,6.09,8-3.36,24.49,7.81,30.17,9.12,4.63,15.64-5.89,17.65-13,3-10.75,2.74-22.61,3.16-33.67.22-6.06-1.35-24.27,4.71-28.23-2.22,1.45-1,.1,0,3.07a30.74,30.74,0,0,1,1.24,8.42c.43,7.21.06,14.47.16,21.69.17,12.32,1.28,26.39,10.53,35.53,1.78,1.75,4.23,1.48,6,0,8-6.57,8.2-17.57,8.18-27.12,0-.87.49-12.71,1.08-12.43,2.76,1.3,3,10.42,3.3,12.77,1.23,10.75,1.15,22.08,5,32.32,3.07,8.14,11.55,10,16.63,2.36,1.83-2.76,3.66-17.71,7.48-10.59,2.76,5.13,2.23,12.59,3.43,18.2,4.29,20,23.15,23.18,40.9,20.94,5.39-.67,5.45-9.22,0-8.53-9.65,1.21-23.24,2.59-29.57-6.68-3.77-5.54-4-13.09-4.91-19.5-.8-5.46-2.44-11-7.47-14-8.05-4.74-13,2.55-15,9.43-.51,1.74-1,3.48-1.59,5.2-1.14,3.29-1.06,2.43-2.18-.55-2.26-6-2.66-12.7-3.26-19-.84-8.91-.22-21.55-6.84-28.54-5.8-6.12-13.41,0-14.87,6.35-2.43,10.52,3.24,25.52-6.33,33.33h6c-10.79-10.65-8-30.66-8-44.44,0-8.64.58-23.77-10.35-26.32C111.15-2,109.23,15.32,108.62,20.8c-1.51,13.43-.71,27-2.51,40.44-.58,4.31-1.29,9.86-4.32,13.23-4.33,4.84-4-8-4-10-.25-8.27-2-24.64-14.38-18.76-8.63,4.1-8,18.84-8.24,26.58-.17,6.93,2.36,27.84-6.33,30.94s-7.42-13.8-10.79-19.13c-4.18-6.61-14.62-4.33-17.25,2.39-2.79,7.13-2.62,15.28-5.38,22.55-5,13.27-17.22,13.63-29.15,9.53-5.21-1.8-7.44,6.45-2.26,8.23Z"/><path class="cls-3" d="M8.27,175.73l-.08-.09-6,6c9.44,9.2,25.8,29.95,34.65,9.16,2.61-6.12,9.09-19.76,15.2-7.74,3.37,6.65,7.6,19.25,17.7,15.12,8.94-3.65,11.44-15.75,18.93-21.34,11.19-8.36,13.79,11.71,20.79,16,9.82,6,17,.31,22.67-7.85,4-5.76,10.23-13.54,16.15-4.76,3,4.43,3.91,9.91,7,14.29,1.72,2.44,5.79,3.07,7.37,0,3.92-7.6,9.67-15.78,19.32-13.94,8.29,1.57,14.59,9.6,18.79,16.28a4.37,4.37,0,0,0,4.81,2c13.52-3.05,19.32-14.85,23.53-27,1.81-5.21-6.44-7.43-8.23-2.27-3.22,9.24-7.13,18.63-17.57,21l4.83,2c-5.89-9.39-14.15-18.35-25.5-20.51-12.84-2.44-22,7.87-27.35,18.17h7.37c-5.73-8.15-6.15-18.77-17-22.23-11.48-3.67-17.62,8.91-23.32,16.06-8.55,10.73-14.22-11.86-20.06-15.27-9.6-5.59-19.3.06-25.27,8-3,4-5.36,8.38-8.63,12.08-4.09,4.62-7.66-7.29-8.94-10.11-3.83-8.41-13.14-11.67-21-6.3-6,4.12-7.44,11.72-10.69,17.77C24.93,195.37,11,178.35,8.19,175.64c-3.95-3.85-9.85,2.06-6,6l.08.08c3.82,4,9.84-2.06,6-6Z"/><path class="cls-4" d="M6.05,161.05l29,.82a4.34,4.34,0,0,0,4.27-4.27q.42-5.59.83-11.19l-4.26,4.27,20.2.74q-2.13-2.14-4.27-4.27c-.18,3-.37,6-.55,9.07a4.29,4.29,0,0,0,4.27,4.27l17.9.34c1.72,0,3.85-1.31,4.12-3.13a114.7,114.7,0,0,0,1.29-17L74.6,145l24.47-.53a4.33,4.33,0,0,0,4.27-4.27l.57-17.42-4.27,4.27h23.9a4.31,4.31,0,0,0,4.27-4.27V92.16q-2.13,2.15-4.27,4.27l22.77-.18L142,92c-.5,19.76-1.1,39.53-1.14,59.3a4.3,4.3,0,0,0,4.27,4.26l18.21-.14a4.31,4.31,0,0,0,4.27-4.27V117.5l-4.27,4.27,21.2.76-4.27-4.26q-.08,18.2-.14,36.39a4.31,4.31,0,0,0,4.26,4.27l39.58.7c5.51.1,5.5-8.44,0-8.53l-39.58-.71,4.27,4.27.15-36.39a4.31,4.31,0,0,0-4.27-4.27l-21.2-.77a4.3,4.3,0,0,0-4.27,4.27v33.64l4.27-4.27-18.21.15,4.27,4.27c0-19.77.63-39.54,1.14-59.3a4.29,4.29,0,0,0-4.27-4.27l-22.77.17a4.32,4.32,0,0,0-4.27,4.27v30.62q2.15-2.13,4.27-4.27H99.64a4.33,4.33,0,0,0-4.27,4.27L94.8,140.2q2.15-2.13,4.27-4.27l-24.47.53a4.31,4.31,0,0,0-4.27,4.27,97.69,97.69,0,0,1-1,14.7l4.11-3.13L55.56,152l4.27,4.26c.18-3,.37-6.05.55-9.07a4.3,4.3,0,0,0-4.27-4.27l-20.2-.73a4.31,4.31,0,0,0-4.27,4.26L30.8,157.6l4.27-4.27-29-.82c-5.51-.15-5.5,8.39,0,8.54Z"/></g></g></g></svg>