<svg xmlns="http://www.w3.org/2000/svg" viewBox="0 0 311.78 286.15"><defs><style>.cls-1{fill:#1143a8;}.cls-2{fill:#13a543;}</style></defs><title>ЛОГО</title><g id="Слой_2" data-name="Слой 2"><g id="ЛОГО"><path class="cls-1" d="M195,18.82C183.19,5.29,164.92-1.41,147.19.25c-35.7,3.34-58.87,40.21-48.07,74a57,57,0,0,0,13.7,22.24,53.77,53.77,0,0,0,10.08,8c2.7,1.68,3.85,5.6,4.75,8.44,1.79,5.63,1.82,13.16,5.33,18.08,4.3,6,12.77,8.55,19.84,8.68,7.36-.14,15.67-2.85,20.1-9,1.53-2.15,2-5.29,2.61-7.79.92-3.93,1.75-7.88,3.05-11.71a13.27,13.27,0,0,1,5.38-7.44A56.64,56.64,0,0,0,207.9,69.32C212.21,51.45,206.94,32.55,195,18.82Zm-2.52,69.6c-3.88,4.86-8.65,8-13.47,11.8-4,3.11-5.67,8.33-7,13s-1.61,9.86-3.74,14.13c-2.41,4.86-10.57,6.57-15.45,6.66a24.91,24.91,0,0,1-10.95-2.8c-3.75-1.94-4.93-4.42-5.9-8.25-1.75-6.89-2.59-15-7.23-20.66-2.26-2.79-5.69-4.41-8.44-6.67A50.84,50.84,0,0,1,102,54.23c.58-18.75,12.33-35.45,28.91-43.67,17-8.45,38.24-5.78,53.15,5.75C206.31,33.51,209.93,66.53,192.46,88.42Z"/><path class="cls-1" d="M167.37,138.85a25.91,25.91,0,0,1-14.85,5.28,25.91,25.91,0,0,1-14.85-5.28c-2.9-2.23-5.71,2.7-2.86,4.89a28.95,28.95,0,0,0,35.42,0C173.08,141.55,170.27,136.62,167.37,138.85Z"/><path class="cls-1" d="M167,150.19a27.61,27.61,0,0,1-28.76,0c-3.12-1.93-6,3-2.86,4.89a33.24,33.24,0,0,0,34.48,0C172.92,153.16,170.08,148.26,167,150.19Z"/><path class="cls-2" d="M178.47,26.89c-1-2.3-4.83-3.06-5.46,0-1.23,6-3.44,11.32-8.44,15.11-3.49,2.66-7.28,4.72-10.12,8.16-6.23,7.54-7.8,18.85-2,26.4-3.9,7-5.2,15-5.1,23,.11,7.53,1.6,16.11,6.08,22.34,2.11,2.94,7,.12,4.89-2.85-7.31-10.18-7.17-27.21-1.54-38.52a2,2,0,0,0,.36.18c11,5.62,20.36-5.19,24-14.74C185.86,53.8,183.35,38.55,178.47,26.89Zm-1.21,31.19c-.69,7.55-8.11,22.9-17.86,17.4-9.37-6.33-4.18-19.9,3.36-25.35,3.19-2.3,6.5-4.3,9.18-7.24a22.81,22.81,0,0,0,3.88-6A62.53,62.53,0,0,1,177.26,58.08Z"/><path class="cls-2" d="M140.6,72.12c-5.86-4.8-15.85-4.48-22.51-1.72-1.83.76-3,3.14-1.25,4.73,5.47,5,4.92,13.29,10.1,18.34s14.31,3.38,18.31-2.06a2.64,2.64,0,0,0,.61-.9,3,3,0,0,0,.35-1C148.34,83.28,145.7,76.29,140.6,72.12Zm-7.31,18.31c-2.95-.62-3.9-2.84-4.85-5.42-1.35-3.69-2.55-7.28-4.65-10.42a19.84,19.84,0,0,1,11.77,1c3.94,1.73,7.16,7.94,5.41,12.08C139.31,90.5,136.36,91.09,133.29,90.43Z"/><path class="cls-1" d="M25.2,179.4c-7.08.4-14.16-1.71-18-8.09a11.61,11.61,0,0,1,1.51-13.79c3.31-3.39,8.86-4.24,13.33-4.71,8.09-.86,16.36-.21,24.44.52,3.65.3,3.6-5.33,0-5.66-5.32-.44-11.52-2-14.77-6.64-2.44-3.47-.78-8,2.55-10.16,3.52-2.26,8.28-2.29,12.3-2.25,6.64.07,13.25,1.31,19.72,2.66,3.57.74,5.08-4.72,1.51-5.46-11.25-2.34-30.06-7.1-39.38,2.57a12.91,12.91,0,0,0-1.59,15.5,14.26,14.26,0,0,0,2.3,2.91,79.45,79.45,0,0,0-11.42.92c-5.81.92-11.31,3.25-14.88,8.06-4.13,5.55-3.44,13.49-.05,19.16,4.57,7.65,14,10.6,22.4,10.12C28.83,184.86,28.85,179.2,25.2,179.4Z"/><path class="cls-1" d="M84.53,205.66c-4.26,2.39-9.76,4.35-14.73,3.45a2.21,2.21,0,0,1-.92-.41,6.19,6.19,0,0,1,.23-1,22.53,22.53,0,0,1,2.24-4.89c4.91-9,11.28-17.16,15.56-26.54,1.49-3.28-3.33-6.17-4.89-2.86-.31.65-.62,1.28-1,1.89C73.15,164.72,58,165,46.5,170.92A37.48,37.48,0,0,0,29.85,188.1c-2.08,4.63-2.73,11.08,1.76,14.49,2.67,2,6.9,2.13,10.07,2.12a50.36,50.36,0,0,0,16-3,53.84,53.84,0,0,0,10.61-5,43.5,43.5,0,0,0-4.61,9.45c-1.3,4.11.58,7.25,4.65,8.36,6.2,1.69,13.75-1,19.09-4C90.57,208.76,87.72,203.86,84.53,205.66ZM59.43,195c-6.6,3-15.15,5.14-22.4,3.67-3.15-.64-3.6-2.1-2.94-5.54,1.31-6.78,7.6-12.49,13.09-16.06,9.82-6.39,24.17-7.3,30.55,3.53A46,46,0,0,1,59.43,195Z"/><path class="cls-1" d="M121.69,185.77c-4.29-6.34-11.56-9.47-19-7-7.62,2.56-9.75,10.62-6.78,17.57,1.65,3.86,4.26,6.29,7.25,9.1,3.17,3,6.47,8.45,4,12.73-1.84,3.25-7.38,3.29-10.53,3.12-3.63-.2-8-1.64-10.3-4.67s-7.08-.08-4.89,2.86c7.35,9.89,31.71,11.66,32.25-4.48.32-9.37-8.86-13.29-12.52-20.53-2.23-4.41-.87-8.94,3.86-10.53,4.57-1.53,9.19.89,11.73,4.66C118.84,191.64,123.75,188.81,121.69,185.77Z"/><path class="cls-1" d="M174.07,207.85c3.05-2,.22-6.89-2.85-4.89a134.14,134.14,0,0,0-13.89,10.34c.83-8.75,1.35-17.53,1.39-26.3,0-3.16-4.84-3.91-5.56-.75-1.84,8.11-6.36,15.55-11.27,22.17-2.72,3.66-9.87,13.36-15.47,11.94-3.26-.84,1-14.29,1.52-16,1.93-6.54,4.5-12.87,7-19.21,1.34-3.4-4.14-4.86-5.46-1.5-3,7.75-6.14,15.48-8.18,23.57-1.35,5.35-3.72,15.78,3.21,18.46,7.31,2.83,15.14-5.77,19.26-10.56a80.56,80.56,0,0,0,8.81-12.36q-.47,8-1.35,16.07A141.76,141.76,0,0,0,131,243c-6.37,9.61-13.78,22.31-13.5,34.3.09,4,1.78,7.09,5.62,8.45,6.36,2.25,12.57-4.47,15.89-8.89,10.48-13.92,14.11-30.35,16.41-47.24q.54-4,1-8a134.4,134.4,0,0,1,11.41-9.44C169.87,210.63,172,209.22,174.07,207.85Zm-26.5,35a80.52,80.52,0,0,1-8.21,23c-2.06,3.82-9.18,17.1-15.25,14.19-.31-.15-.74-.75-.88-1.93a19.09,19.09,0,0,1,.53-6.25c1.35-6.26,4.14-12.18,7.17-17.78a124.3,124.3,0,0,1,19.15-26.22Q149,235.4,147.57,242.85Z"/><path class="cls-1" d="M204.53,200.41c-4.17,3.75-9.1,6.57-14.15,9.25q.21-8.53.09-17.06c-.21-15.06-.92-30.66,2.38-45.46,1.82-8.15,5.55-15.75,14.43-17.28,3.6-.62,2.07-6.08-1.5-5.46-8.76,1.51-14,8-16.9,16-4.72,13.08-4.26,28.33-4.21,42,0,10.15.05,20.26-.22,30.36-6.8,3.61-13.35,7.52-18.09,13.66-2.23,2.89,2.69,5.7,4.89,2.85,3.23-4.18,8.15-7.21,13-9.9-.29,7.12-.76,14.23-1.49,21.36-1.18,11.42-2.4,23.63-6.35,34.5-1.25,3.44,4.22,4.91,5.46,1.51,3.47-9.55,4.64-20.12,5.88-30.14s2-20.3,2.45-30.5c6.3-3.51,13-6.84,18.35-11.7C211.25,202,207.23,198,204.53,200.41Z"/><path class="cls-1" d="M250.21,184.63c-2.61,10.48-10,24.91-23.14,22.24a13.76,13.76,0,0,1-10.29-8.33,66.2,66.2,0,0,0,12.27-11.43c4.14-4.72,8.67-10.49,9.7-16.86a9.22,9.22,0,0,0-8.22-11c-6.29-.73-11.29,4.29-14.64,9-8.09,11.29-10.3,29.55.91,39.55,9.81,8.74,23.64,5,31.18-4.66,3.88-5,6.18-10.93,7.69-17C256.56,182.59,251.1,181.09,250.21,184.63Zm-33.67-5.08c1.72-5.31,5-11,9.94-13.89,4.18-2.4,7.56.65,6.41,4.94-1.39,5.22-5.51,9.91-9,13.83a62.82,62.82,0,0,1-8.65,8.28A31.61,31.61,0,0,1,216.54,179.55Z"/><path class="cls-1" d="M278.23,175.57c-7.53-5.48-18.08-1.66-25.64-7.59-3.09-2.41-2.19-6.9-.55-9.9,2.39-4.37,7.18-4.87,11.54-3.61,3.52,1,5-4.45,1.51-5.46-7.58-2.19-15.16.22-18.65,7.6s-.79,14.39,6.3,18.1c4.05,2.12,8.45,2.84,12.95,3.17,3.73.27,9.18.81,11.28,4.38s-2.11,9.5-5.06,11.36c-3.54,2.23-8.16,1.71-11.67-.23-3.2-1.78-6.06,3.12-2.86,4.89,6.8,3.77,15,3.1,20.69-2.35S285,180.52,278.23,175.57Z"/><path class="cls-1" d="M306.24,165.41a31.46,31.46,0,0,1-3.42,9.46,5,5,0,0,1-3.95,2.59,3.56,3.56,0,0,1-.72-.57c-3.06-3.24-4.59-8.62-6.1-12.69-1.57-4.23-2.92-8.53-4.24-12.84l.1-.09c4.34-3.77,9.34-7.9,12.18-13,1.77-3.2-3.12-6.05-4.89-2.86-2.15,3.87-5.78,7.09-9.21,10.05-1.18-3.77-2.41-7.51-3.82-11.19-1.3-3.38-6.77-1.91-5.46,1.5,1.73,4.51,3.2,9.1,4.64,13.7-3.57,3-7.24,6-11,8.72-2.92,2.13-.1,7.05,2.86,4.89,3.41-2.48,6.73-5.1,10-7.79a170.9,170.9,0,0,0,6.54,18.11c1.59,3.61,4,9.17,8.47,9.72,8.63,1.06,12.06-9.79,13.53-16.2C312.51,163.36,307.05,161.85,306.24,165.41Z"/></g></g></svg>