<svg xmlns="http://www.w3.org/2000/svg" viewBox="0 0 457.68 341.48"><defs><style>.cls-1{fill:#98c01c;}.cls-2{fill:#e98916;}.cls-3{fill:#1143a8;}.cls-4{fill:#45bbd7;}.cls-5{fill:#e43c84;}.cls-6{fill:#ffc000;}.cls-7{fill:#f49c00;}.cls-8{fill:#fff;}</style></defs><title>Guys&amp;amp;devices</title><g id="Слой_2" data-name="Слой 2"><g id="Guys_devices" data-name="Guys&amp;devices"><g id="Guys"><g id="Слой_5" data-name="Слой 5"><path class="cls-1" d="M431.46,188.43a7.1,7.1,0,0,0-5.23-4.94c-3-.93-5.56-1.67-8.16-3.47a23.77,23.77,0,0,0-8.83-3.87c-6-1.2-11.12-4.94-17.11-6.64-3.05-.86-5.73-2.32-8.67-3.46l-1.08-.52-.49-.18a29.28,29.28,0,0,1-.87-4.62c-.37-2.5-.38-5.25-1.52-7.52l-.1-.21a5.42,5.42,0,0,0-.42-2.21c-.11-.26-.2-.53-.29-.81a12.64,12.64,0,0,1-.41-3.74c0-.23,0-.47,0-.7a4.68,4.68,0,0,0-.64-2.49c.14-3.79.3-7.57.3-11.34a46.53,46.53,0,0,0-2.06-12.33,14.3,14.3,0,0,0-.68-1.83c0-.57,0-1.13,0-1.69,0-5.38,1.53-17.55-4.76-20a14.27,14.27,0,0,0-5.89-4.22c-2.4-1-4.54-2.56-6.91-3.65-3.05-1.4-6.07-2.27-9.07-3.93-2.61-1.45-4.9-3.15-7.83-3.8a8.7,8.7,0,0,0-4,.31l-.24.29c-4.12,4.08-12.57,4.91-18.12,3-.72-.08-1.45-.18-2.2-.31-1.3-.24-2.59-.48-3.88-.78l-.66-.14-.95-.42a6.89,6.89,0,0,0-6.93.82c-3.75,3.31-10.63,4-15.24,5.71-5.19,1.89-12.68,2.69-15,8.66a17.7,17.7,0,0,0-1.21,7.85c.19,3.72-1.91,7.14-3,10.6a32.79,32.79,0,0,0-1.45,8.79c0,.32,0,.75,0,1.21a14.72,14.72,0,0,0-1,8.14,5.7,5.7,0,0,0,.55,1.6c-.22,1.36-.4,2.73-.49,4.12,0,.57-.08,1.16-.11,1.78a31.06,31.06,0,0,0-.63,5.67c-1,5.6-.08,12-.69,17.61-.37,3.43-1,6.41-1,9.95v13.13c0,3.63-.29,7.4.17,11a76,76,0,0,1,.87,9.71c0,4,3.65,5.13,6.6,4a9.29,9.29,0,0,0,2.46,1.28,4.06,4.06,0,0,1,3.22-.48,36.31,36.31,0,0,0,4,.73,10.06,10.06,0,0,0,4.07-1.66,3.88,3.88,0,0,0,.31-.26,5,5,0,0,0,3,.58c2.61-.27,5.07-.59,7.58-.8,6.07.47,12.11,1.48,18.24,1.59,2.82.05,7.07.47,10.51-.37a5.3,5.3,0,0,0,2.35.27,6.8,6.8,0,0,0,4.45-2.22c1.47-1.36,4.5-1.57,6.57-2.57a6.35,6.35,0,0,0,5.16,5c5.55,1,10-3.86,7.64-8.83a13.94,13.94,0,0,0,1.07-3.44,4.59,4.59,0,0,0-.13-2.2l1-1.14a7.13,7.13,0,0,0,1.41-2.49c3.37-2.72,3.49-6.63,3.09-11.24a36.57,36.57,0,0,0-.83-5.17c.16-1.6.26-3.2.3-4.79,0-.08,0-.16,0-.25h0c0-.18,0-.37,0-.56l.17-.3a4.67,4.67,0,0,0,3.9,2,13.08,13.08,0,0,1,.44,2.21c-.13,2.06.57,5,2.4,6.2a8.94,8.94,0,0,0,5.2,1.71c1.28,0,3.28-.55,4.48-.15,1.36.45,2.64,1.93,3.72,2.83,2,1.7,5,2.19,7.4,3.26a95.09,95.09,0,0,0,10.33,3.88c.84.27,1.68.52,2.52.76a7.81,7.81,0,0,0,3.53,3,19.55,19.55,0,0,0,2.89,1.05c-2-.43.61.39,1.14.55,5.43,1.7,10.11,3.25,15.81,4.06s8.84-3.52,9.27-8.8C431,193.18,432.3,191.25,431.46,188.43Z"/><path class="cls-2" d="M232,103.8c-1.43-2-1.2-6.8-1.13-9.06.1-3.17-.2-6.6-.18-10a35.69,35.69,0,0,0,1.28-5.41,2,2,0,0,0,.31-1,57.37,57.37,0,0,0,.13-10.32,14.1,14.1,0,0,1-.05-1.86c.12-2,0-4-.08-6a1.51,1.51,0,0,0-.23-.78,7.61,7.61,0,0,0-.5-2.33,38.31,38.31,0,0,0-3.42-6.11,6.58,6.58,0,0,0-.84-2.12,8.24,8.24,0,0,0-1.62-3.13,2.12,2.12,0,0,0-1.72-.76A8.55,8.55,0,0,0,221,41.7c-2.13-1.63-6.95-3.06-9.4-3.77-8.65-2.51-18.25-1.31-23.45,6.47-2.67,4-5.95,6.4-6.76,11.38-1,6-3.4,11.34-3.67,17.57-.23,5.48.17,11,.06,16.48-.06,2.6-.93,5.09-1.09,7.68-.13,2.09-1.62,3.78-1.73,5.87a2.71,2.71,0,0,0,.15,1c-1.85,1.18-.36,4.46,2,3.62,4.87-1.76,10.14-1.7,13.89-5.71,3-3.18,3.9-10.55,4-15.42a3.62,3.62,0,0,1-2.56-3.4,2.72,2.72,0,0,0-.47.19c0-.2-.07-.39-.12-.61-.71-2.79-1.2-5.43-1.7-8.27-.44-2.56-1.47-4.86-2.07-7.37-.08-.33-.58-2-1-3.93,1-2.38,2.18-4.67,2.39-7.18a2.35,2.35,0,0,0-.06-.76c1-.5,2.07-.95,2.91-1.4A40.58,40.58,0,0,1,198.5,51c2.43-.8,4.88-1.2,7.16-2.41A13.3,13.3,0,0,1,211,47l.55.21s0,.06.08.08c2.33,1.79,4.9,2.65,6.76,5.09l.5.67c.13.51.29,1,.45,1.52A3.61,3.61,0,0,1,221,57.06a4.3,4.3,0,0,1,1.95,3.64V61a3.69,3.69,0,0,1-.45,1.71,26.25,26.25,0,0,1,.82,4.71C221.85,72,220,76.3,219.17,81a14,14,0,0,0-1.8,5.38c-.78,2.92-.28,6.28-.28,9.27a1.81,1.81,0,0,0,.15.72c-.18,1.14-.28,2.55.49,3.47a7.13,7.13,0,0,0,.83.82,2.23,2.23,0,0,0,1.17,2.19c1.07.56,2.15.89,3.18,1.33a18.65,18.65,0,0,0,3.72,2.81,1.72,1.72,0,0,0,.92.23,6.78,6.78,0,0,0,3.23,2.53,2.08,2.08,0,0,0,2.84-2.15A7.11,7.11,0,0,0,232,103.8Z"/><path class="cls-2" d="M344.58,19.46c-.73-2.75-1.45-7.37-4.14-8.85a1.57,1.57,0,0,0-.23-.09,13,13,0,0,0-7.61-5.17c-.14-.08-.27-.16-.42-.23-3.79-1.84-13.1-3.9-17.45-1.79a18.8,18.8,0,0,0-7.16,2.29,11.43,11.43,0,0,0-4.88,5.21,1.81,1.81,0,0,0-1.9,1.24A28.29,28.29,0,0,0,299.32,18a64.23,64.23,0,0,0-1.09,7.68,2.15,2.15,0,0,0,1.39,2.1,18,18,0,0,0-.7,4.8c0,2.64,4.06,3.24,4.1.58,0-.3,0-.67,0-1.07a1.68,1.68,0,0,0,.93-.72c1.15-1.83,3.06-4.52,2.69-6.86a2.35,2.35,0,0,0,1.11-.73c1.56-2,3-4.86,2.55-7.44,5.3-.59,12.32,1.47,16.24,1.76,4.43.33,7.53,1.41,9.54,5.54-.57,3.89,1,9.11,3.83,10.29,2.1.87,3.63-.35,4.17-2.32a2.8,2.8,0,0,0,0-1.12C345.89,27.29,345.49,22.85,344.58,19.46Z"/><path class="cls-3" d="M196.57,214.05H415.33c3,0,6,.16,8.94,0,.13,0,.25,0,.38,0a1.06,1.06,0,0,0,0-2.12H205.89c-3,0-6-.16-8.94,0h-.38a1.06,1.06,0,0,0,0,2.12"/><path class="cls-4" d="M252.88,181.66c1.17-5.63-.6-11.4-1.41-16.88-.89-6-1.06-12-3.18-17.86-.26-.74-.52-1.52-.79-2.31,0-1.15-.08-2.32-.08-3.48,0-3.13.12-5.94-1.63-8.55.81-5.25-.33-12.4-4.34-15.54-2.11-1.65-4.48-2.54-6.37-4.41s-5.39-3.84-8.26-2.35c-2.61,1.35-3.77,2.71-6.9,2.75s-4.35,3-6.82,4.13c-2,.9-6.6-.29-8.77-.4-3.25-.17-6.4-.84-9.61-1.29a8.92,8.92,0,0,0-3.83-2.22c-2.68-1.65-5.25-3.91-8.31-4.34a1.5,1.5,0,0,0-.2,0,6.56,6.56,0,0,0-3.57-1.64c-1.7-.18-3.86.4-4.82,2-.13.2-.25.41-.38.62a7,7,0,0,0-.8,1.89A12,12,0,0,0,167,115c-2.7,3-4.05,7.67-5,11.53-1.8,7.66-5.13,15.1-6.33,22.92-3.1-2.44-7-4.41-9.43-6-1.73-1.14-3.85-2.1-5.31-3.59s-3.14-3-5.31-3.3c-5.19-.73-7.19,3.88-10.4,6.86a5.35,5.35,0,0,0-1.39,5.91,4.81,4.81,0,0,0,0,.85c2.26,1.82,4.11,4,4.65,6.85a4.09,4.09,0,0,1,1.82,1.77,4.85,4.85,0,0,1,.21.56c1.74,1.91,3.29,4,4.83,6a4.12,4.12,0,0,1,3.59,2c.38.61.8,1.2,1.22,1.77,1.2,1.39,2.67,3,4.32,4.68,2.83,2.57,6,4.82,9.06,7.15a12.9,12.9,0,0,0,7.58,1.87,7.09,7.09,0,0,0,1.44-.84c2.44-1.84,3.28-5.17,4.66-7.77,2-3.74,3.2-8,5.05-11.88a39.53,39.53,0,0,1,2.45-4.21c.1,1.72.38,3.41.63,5.08-.56,4.69-.53,9.38-1,14.1-.13.74-.24,1.48-.3,2.24a5.3,5.3,0,0,0,7.56,5.26,15.8,15.8,0,0,0,5.82,2.31c5.8,1.06,11.47,3.16,17.4,3.59a53.25,53.25,0,0,0,14.92-1c3.66-.79,8.63-3.23,8.74-7.66.14-5.32-1-10.49-1-15.83,0-5.71,2.06-11.82,2.91-17.86.25.93.53,1.85.84,2.77-1,4.53-1.91,9.42-.9,13.87s1.5,9.17,2.52,13.72c-.14,1.11-.28,2.23-.39,3.35-.45,4.5-1,8.91-1.69,13.38s-.8,9.61-2.28,13.92c-1.28,3.71-2,7.81-3,11.63a22.83,22.83,0,0,0-.7,5.94c0,1.78-1.82,3.53-2.06,5.46-.31,2.51,1,4.32,3.13,5.49l.16.07a4.57,4.57,0,0,1,2.37-.67c.47,0,.95,0,1.42,0l.3,0a4.23,4.23,0,0,1,1.05.14,11.74,11.74,0,0,1,2.11.41,3.8,3.8,0,0,1,1.13.59l.75-.09c3.8-.44,5.82-4.42,5.51-7.89-.29-3.21.59-6.63,1.25-10a5.76,5.76,0,0,0,.41-.44c1.82-2.28,2.76-6.19,3.44-9,.85-3.57,2-5.8,1.06-9.53a2,2,0,0,0-.09-.26c.13-.34.25-.67.4-1A101.48,101.48,0,0,0,252.88,181.66Z"/></g><polygon class="cls-5" points="174.49 184.69 199.49 190.64 227.69 187.37 228.87 195.57 229.39 198.84 227.13 211.88 173.02 212.99 174.49 184.69"/><polygon class="cls-5" points="190.24 102.29 180.61 106.32 190.83 113.36 205.29 116.52 220.14 113.6 228.27 108.53 218.54 103.37 213.41 106.68 205.29 108.47 197.03 106.11 190.24 102.29"/><path class="cls-3" d="M185.85,59.29c.47,6.77,1.21,13.62,3.22,20.13,1.7,5.49,4.72,11.44,10.56,13.32,6.1,2,12.4-1.57,16.2-6.17,4.11-5,6.41-11.38,7.86-17.59,1.21-5.22,1.68-10.3-1.67-14.85A54.4,54.4,0,0,0,217.27,49c-.59-.61-1.12-1.83-1.82-2.25-1.24-.72-3.7-.45-5.08-.4-9,.28-18.18,5.65-24.21,12.15-.93,1,.57,2.5,1.5,1.5a41.46,41.46,0,0,1,10.71-8,29.17,29.17,0,0,1,11.51-3.48,23,23,0,0,1,3,0c1,.05,1.17-.15,1.74.64a27.49,27.49,0,0,0,2.8,3c2.4,2.36,4.47,4.8,5.09,8.21.54,3-.46,6.49-1.2,9.41-1.59,6.34-4.23,13-9.07,17.52a13.08,13.08,0,0,1-11.06,3.61c-3.71-.66-6.21-3.67-7.92-6.82-4-7.4-4.71-16.59-5.28-24.83-.1-1.35-2.22-1.36-2.12,0"/><path class="cls-3" d="M200.92,58.13c-2.53-1-6.29-1.38-8.72.11-1.16.71-.1,2.54,1.07,1.83,2-1.2,5.08-.71,7.09.1,1.27.52,1.82-1.54.56-2"/><path class="cls-3" d="M211.83,60.76a7.7,7.7,0,0,1,6.17,0c1.2.66,2.27-1.17,1.07-1.83-2.45-1.36-5.81-1.07-8.32,0-1.24.54-.17,2.36,1.08,1.83"/><path class="cls-3" d="M211,67.59c1.31-1.78,5.26-3,6.63-.69a1.06,1.06,0,0,0,1.83-1.07c-2.27-3.78-8-2.36-10.29.69-.81,1.11,1,2.16,1.83,1.07"/><path class="cls-3" d="M202.39,66.52c-2.57-3.71-7-4.44-10.4-1.43-1,.91.47,2.4,1.49,1.5,2.37-2.07,5.32-1.54,7.08,1,.77,1.12,2.61.06,1.83-1.07"/><path class="cls-3" d="M205.71,68.59c.35,2.25,1.28,4.52,1.41,6.78,0,.28.43-.16,0,0a5.64,5.64,0,0,1-1.48.07c-.94,0-1.87-.12-2.81-.14a1.06,1.06,0,0,0,0,2.12c1.82,0,4.94.85,6.21-.89.56-.78.13-2.17-.05-3-.41-1.83-.91-3.63-1.2-5.48-.21-1.35-2.25-.78-2,.56"/><path class="cls-3" d="M199.31,83.42c3.06,2,6.15,2.45,9.37.54a1.06,1.06,0,0,0-1.07-1.83c-2.59,1.54-4.8,1.07-7.23-.54-1.14-.75-2.2,1.09-1.07,1.83"/><path class="cls-3" d="M195.37,66.05c0-1.25.75-2.25,1.67-2.25s1.66,1,1.66,2.25S198,68.31,197,68.31s-1.67-1-1.67-2.26"/><path class="cls-3" d="M213.41,67.06c0-1.25.74-2.26,1.66-2.26s1.66,1,1.66,2.26-.74,2.25-1.66,2.25-1.66-1-1.66-2.25"/><path class="cls-3" d="M174.89,109.09c1.7-7,3.31-14.25,3.41-21.52,0-3.52-.61-7-.57-10.53a58.55,58.55,0,0,1,1.52-11.86c1.8-8.23,4.11-16.55,10.64-22.3a23.36,23.36,0,0,1,16.42-5.67,17.37,17.37,0,0,1,7.07,1.84c.85.43,1.75,1.46,2.63,1.7.7.19,1.48-.28,2.23-.16A6.13,6.13,0,0,1,221,42c2.87,2.25,5.11,5.79,6.73,9A37.14,37.14,0,0,1,231,64.24a66,66,0,0,1-.41,11.59c-.37,4.12-.72,8.25-.92,12.38-.34,6.9.87,13.75,2.41,20.46a25.88,25.88,0,0,0,1.08,3.75c.49,1.26,2.54.71,2-.56a47.74,47.74,0,0,1-2.09-8.68,84.4,84.4,0,0,1-1.38-9.62c-.44-6.91.65-14,1.26-20.91.67-7.54-.11-15.32-3.25-22.29a33.36,33.36,0,0,0-5.62-8.3c-2-2.27-5-4.34-8.14-3.35l1,.27c-8.55-7.18-22-3.82-29.52,3.2-6.13,5.75-8.36,14-10.19,21.89a65.08,65.08,0,0,0-1.69,11.71c-.16,3.5.38,6.9.52,10.39.31,7.5-1.56,15.11-3.31,22.36-.32,1.33,1.72,1.89,2,.56"/><path class="cls-3" d="M190.75,103.7l-1-2.82c1.91-.69,3.48-8.91,2.92-13.21l3-.39C196.05,90.54,195.35,102,190.75,103.7Z"/><path class="cls-3" d="M217.26,104c-2.55-3-2.58-10.73-2.4-18.44l0-1.51,3,0,0,1.53c-.11,4.57-.34,14.08,1.67,16.41Z"/><path class="cls-3" d="M209,194.25c-16.63,0-34.23-5.72-36.63-6.85L175,182c4.5,2.1,37.36,11.22,51.77,2.5l3.11,5.13C224.16,193,216.7,194.25,209,194.25Z"/><path class="cls-3" d="M317.1,30.39c-2.88-.61-6.48-.06-9.31.62-1.32.32-.76,2.37.57,2,2.43-.58,5.7-1.15,8.18-.62,1.33.28,1.9-1.76.56-2"/><path class="cls-3" d="M328.12,32.33a23.39,23.39,0,0,1,6.38,1.21c1.27.51,1.81-1.54.56-2a25.49,25.49,0,0,0-6.94-1.29c-1.36-.13-1.34,2,0,2.12"/><path class="cls-3" d="M327.17,39.92a4.93,4.93,0,0,1,3.12-2.14c2.07-.55,3.71.68,4.68,2.42a1.06,1.06,0,0,0,1.83-1.07,6.27,6.27,0,0,0-6.1-3.55,7,7,0,0,0-5.37,3.27,1.06,1.06,0,0,0,1.84,1.07"/><path class="cls-3" d="M317.73,40c-2.69-5-10.05-6.19-12.2-.16-.46,1.29,1.59,1.84,2,.56,1.55-4.34,6.6-2.54,8.33.67.65,1.2,2.48.13,1.83-1.07"/><path class="cls-3" d="M324.92,46.06c-1.28,1-3,3.06-4.7,3.09l.68.9c.75-4.77,1.6-9.54,2.1-14.34.1-.91-1.31-.9-1.41,0-.49,4.67-1.32,9.32-2,14a.7.7,0,0,0,.68.89c2.09,0,3.86-2.1,5.41-3.28.72-.55,0-1.78-.71-1.22"/><path class="cls-3" d="M314.72,46.82A11.11,11.11,0,0,0,320,50.54c.88.2,1.26-1.16.37-1.36a9.88,9.88,0,0,1-4.68-3.36c-.58-.7-1.57.3-1,1"/><path class="cls-3" d="M314.47,55.67c2.36,3,8.61,3.44,11.21.63.93-1-.57-2.51-1.5-1.5-1.87,2-6.54,1.52-8.21-.63-.84-1.07-2.33.44-1.5,1.5"/><path class="cls-3" d="M333.81,18a20.64,20.64,0,0,0-5.43-.84c-3.05-.33-6.12-.55-9.19-.71a59.89,59.89,0,0,0-7.46-.09c-2.1.16-2.92,1.43-3.77,3.27a87.55,87.55,0,0,0-3.21,8.91,14.12,14.12,0,0,1-2.06,3.77c-.59.81-1.24,1.58-1.9,2.34a13.67,13.67,0,0,0-1.6,1.73c-.56.94.17,3.18.33,4.22.29,2,.66,3.94,1.08,5.9a56.79,56.79,0,0,0,3.17,10.76,10.09,10.09,0,0,0,4.52,5.33,30.3,30.3,0,0,0,9,3.05,24.34,24.34,0,0,0,9.84.1,9.91,9.91,0,0,0,6.12-4.48c3.77-5.47,5.88-12.32,7.85-18.61.67-2.13,1.32-4.29,1.83-6.47a1.28,1.28,0,0,0-.22-1.26c-.88-1.06-1.73-2.14-2.54-3.25a24,24,0,0,1-3-4.91,80.06,80.06,0,0,1-2.65-8,1.06,1.06,0,0,0-2,.56c.69,2.37,1.43,4.74,2.27,7.06,1.38,3.77,3.92,7,6.46,10.06l-.27-1a105.57,105.57,0,0,1-5.07,15.79,47.77,47.77,0,0,1-4.45,9c-1.74,2.6-4.12,3.62-7.19,3.84a28.67,28.67,0,0,1-10.44-1.44c-2.3-.7-5.37-1.68-6.83-3.74-1.94-2.72-2.76-6.41-3.58-9.6A86.71,86.71,0,0,1,301.28,38c0-.24-.06-.47-.08-.71-.23.31-.21.31.05,0s.7-.74,1-1.12A40.1,40.1,0,0,0,304.8,33a19.09,19.09,0,0,0,2.51-5.44,72.63,72.63,0,0,1,2.47-6.85c.61-1.35.86-2.14,2.15-2.23a79,79,0,0,1,11.81.39c2.07.16,4.13.34,6.19.59a13,13,0,0,1,3.32.6c1.27.51,1.81-1.54.56-2.05"/><path class="cls-3" d="M298.87,37.82c-1.53-2.18-4.37-20.84,2.69-28.51,6.54-7.1,11-9.54,17.19-9.29,6.47.25,13.88,1.19,19.79,6.33s9.82,14.09,8.67,19.67c-1,4.69-2.52,8.76-4.06,10.64l-2.32-1.9c1-1.19,2.47-4.62,3.44-9.34.83-4.06-2.12-12-7.7-16.81-5.21-4.52-12-5.37-17.94-5.6-4.5-.17-8.21,1.11-14.86,8.33-5.71,6.2-3.63,22.75-2.43,24.77Z"/><path class="cls-3" d="M309.54,38.86c0-1.24.74-2.25,1.66-2.25s1.66,1,1.66,2.25-.74,2.26-1.66,2.26-1.66-1-1.66-2.26"/><path class="cls-3" d="M328.71,38.86c0-1.24.75-2.25,1.67-2.25s1.66,1,1.66,2.25-.75,2.26-1.66,2.26-1.67-1-1.67-2.26"/><path class="cls-3" d="M267.48,211.6a150.77,150.77,0,0,1-1.36-20.7c-.09-5.2,0-10.41.2-15.61.11-2.74.28-5.47.47-8.21.21-2.9-.13-5.86-.21-8.77-.45-17.3,1.08-35,6-51.7a60.07,60.07,0,0,1,3.79-10.06c1.07-2.14,1.93-3.39,4-4.3,4.51-2,9.43-3.18,14.09-4.81,4.15-1.46,9.12-3,12.25-6.31h-1.5c4.81,4.09,11.87,5.26,18,5.27s13.46-1.48,17-7l-1.45.39c6.33,4,13.56,6.54,20.35,9.63a53.4,53.4,0,0,1,8.75,4.71c2.13,1.5,2.91,3.53,3.69,5.95,2.76,8.54,3.91,17.77,4.67,26.68.4,4.69.51,9.4,1,14.09.46,4.4,1.11,8.79,1.84,13.16s1.56,8.9,2.54,13.31c.15.64.88.79,1.4,1l3.79,1.44,7.08,2.68,11.9,4.48c6.57,2.49,13.13,5,19.62,7.67l4.45,1.88c.75.32,1.1,2.93,1.25,3.65a11.91,11.91,0,0,1,.09,3.32c-.37,4-3.24,7.51-5.34,10.77l.91-.53c-8.43.56-16.52-1.95-24.19-5.22-6.76-2.88-13.27-6.52-20.31-8.7a23.74,23.74,0,0,0-8.72-1.2,14.17,14.17,0,0,0-3.8.81,14.84,14.84,0,0,0-1.78.79c-.47.24.23.34-.18.1a7.2,7.2,0,0,1-1.85-2.77,41.14,41.14,0,0,1-2.06-5.59c-3.1-10-4.9-20.43-6.64-30.73q-1.17-6.93-2.15-13.9a55.57,55.57,0,0,1-.78-6.79,1.06,1.06,0,0,0-2.12,0,60.75,60.75,0,0,0,.93,7.84c.72,5.19,1.54,10.35,2.43,15.51,1.86,10.79,3.65,22,7.53,32.29.8,2.11,2.06,6,4.75,6.34.53.07,1.06-.4,1.51-.63a11.93,11.93,0,0,1,1.91-.73,13.34,13.34,0,0,1,4.31-.46,29.08,29.08,0,0,1,9.17,2.2c7.19,2.68,13.92,6.45,21.09,9.2a60.19,60.19,0,0,0,11.77,3.3,43.32,43.32,0,0,0,5.68.54c1,0,2,0,3,0s1.36-.47,2-1.41c3.27-5,6.16-9.78,4.66-16-.29-1.21-.72-3.26-2-3.8l-3.38-1.43c-2.52-1.06-5-2.08-7.59-3.09-12.27-4.87-24.69-9.38-37-14.1.25.25.49.5.74.74-1.13-5.07-2-10.19-2.88-15.32-.74-4.61-1.35-9.25-1.75-13.9s-.54-9.59-1-14.38c-.86-8.36-2-17.06-4.87-25a10.87,10.87,0,0,0-3.7-5.47A45.48,45.48,0,0,0,361,88c-7-3.29-14.59-5.85-21.18-10a1.08,1.08,0,0,0-1.45.39c-3.14,4.81-9.9,5.84-15.19,5.89-5.48.06-12.18-1-16.5-4.65a1.07,1.07,0,0,0-1.5,0c-2,2.12-5,3.32-7.67,4.4-3.36,1.36-6.82,2.46-10.27,3.57A81.74,81.74,0,0,0,279,90.53,6.9,6.9,0,0,0,276,93c-2.4,3.3-3.74,7.55-5,11.39a133.84,133.84,0,0,0-4.64,20.94,190.06,190.06,0,0,0-1.9,21.57c-.14,4.26-.12,8.51,0,12.76a61.15,61.15,0,0,1,.22,6.76q-.25,3.44-.43,6.88c-.4,8-.43,16.09-.1,24.12a128.1,128.1,0,0,0,1.25,14.77c.21,1.34,2.26.77,2-.56"/><path class="cls-3" d="M292,126.57c-1.13,12.3-2.75,24.61-4.57,36.83-.35,2.32-.71,4.65-1.18,6.95a17.21,17.21,0,0,0,.13,3.92c.06,1.76.07,3.53.05,5.29-.06,7.54-.54,15.08-1.06,22.59-.22,3.24-.51,6.48-.66,9.73-.05,1.36,2.06,1.36,2.12,0,.57-12.9,2.22-25.78,1.62-38.72a14,14,0,0,1,.05-3.3c.22-1.19.42-2.38.61-3.56.49-3.09.92-6.19,1.35-9.29.95-6.95,1.81-13.92,2.62-20.89.37-3.18.74-6.36,1-9.55.12-1.36-2-1.35-2.12,0"/><path class="cls-3" d="M307.28,81l-2.7-1.31c2.15-4.43,2.07-12,2-16.56,0-.69,0-1.32,0-1.88h3c0,.55,0,1.17,0,1.84C309.65,68.24,309.74,76,307.28,81Z"/><path class="cls-3" d="M338.11,79.85c-4.1-5.18-5.72-15.67-5.81-21.46l3,0c.08,5.17,1.55,15.07,5.17,19.64Z"/><path class="cls-3" d="M207,118c-8.77,0-17.95-3.51-27.26-10.51l1.8-2.39c16.38,12.31,32.23,13.08,45.83,2.22l1.87,2.35C222.25,115.26,214.77,118,207,118Z"/><path class="cls-3" d="M444.82,212.36a4.72,4.72,0,0,1-.77-.06c-3.25-.6-11.58-5-16.36-7.94l1.58-2.55c5,3.11,12.83,7.08,15.33,7.54,1.19.22,5-1.25,7.87-3.28,1.71-1.23,2.18-2.06,2.2-2.25.11-2.22-1.11-5.41-3.27-6.69l-1.78-1c-2.74-1.54-4.56-2.56-4.51-4.2,0-.95.73-1.69,2.75-3.67.3-.3.69-.67,1.08-1.07-1.52.66-3.79,1.76-7.18,3.55l-.84.45c-2,1-7.57,1.06-9.25.27l1.28-2.72c.87.38,5.39.4,6.6-.22l.81-.43c8.61-4.55,10.93-5.19,12.2-4.77a1.77,1.77,0,0,1,1.08.92c.85,1.72-1.05,3.58-3.68,6.16-.49.49-1.1,1.08-1.51,1.53.63.46,1.76,1.09,2.64,1.59.6.33,1.22.68,1.84,1.05,3.28,1.94,4.89,6.3,4.74,9.42-.06,1.28-1,2.6-2.79,4C452.47,209.92,447.76,212.36,444.82,212.36Z"/><path class="cls-3" d="M358.89,213l-3-.08c0-1,.11-3.15.23-6.1.46-11.44,1.52-38.24.86-42.68l3-.44c.62,4.15,0,23.23-.83,43.24C359,209.9,358.92,212.08,358.89,213Z"/><path class="cls-3" d="M223.65,275.16a2.86,2.86,0,0,1-1.27-.28c-2.17-1.08-2.89-3.9-3.42-5.95l-.05-.2c-.28-1.09,0-2.63.51-5-1.07,1.23-2.37,2.23-3.93,1.68a2,2,0,0,1-1.22-1.27c-1.1-3.48,7.91-17.61,8-17.74.81-1.14,1-4.18,1.21-6.62.06-.79.12-1.56.19-2.29l3,.29c-.07.71-.13,1.46-.19,2.22-.23,3.11-.46,6.32-1.76,8.14a96.06,96.06,0,0,0-6.86,12.73l.37-.5c.92-1.28,1.59-2.21,2.65-2.32a1.71,1.71,0,0,1,1.38.45c1.12,1,.72,2.91.11,5.78a16.74,16.74,0,0,0-.55,3.73l.05.2c.33,1.3.88,3.44,1.78,4h.06c1.37,0,6.12-2.77,7-6.32,1.12-4.48,2.36-16.5,2.46-18.66a64.19,64.19,0,0,1,1.13-7.26l.29-1.53,3,.54c-.08.44-.18,1-.3,1.55a67,67,0,0,0-1.08,6.83c-.08,1.89-1.31,14.32-2.54,19.26-.89,3.55-4.25,6.5-7.19,7.85A6.91,6.91,0,0,1,223.65,275.16Z"/><path class="cls-3" d="M124.5,145.39c-.11-.17-.22-.36-.34-.58a5.46,5.46,0,0,0-3.25-2.9c-3.91-1.36-10-14.26-10.55-18.7-.44-3.5,0-12.76,2.82-14,2.42-1.11,6,.32,7.39,1,1.61.76,2.83,3.32,4.37,6.85l.15.34c.9-2.41,1.8-4.57,3.73-4.09,1.29.32,1.91,1.52,2.44,8.13.29,3.51.41,7.22.41,8.34,0,1.52,1.74,4.91,3.36,7.18l-2.45,1.74c-.15-.22-3.91-5.53-3.91-8.92,0-2.4-.3-8-.73-11.44-.07.17-.13.33-.18.47-.75,2-1.12,3-2.19,3.29-1.54.39-2.11-.94-3.38-3.84-.64-1.46-2.13-4.88-2.91-5.34-2.12-1-3.93-1.25-4.72-1-.81,1.13-1.73,7-1.23,11,.54,4.28,6.46,15.5,8.57,16.24a8.35,8.35,0,0,1,4.87,4.26c.09.16.17.3.25.42Z"/><path class="cls-3" d="M174.08,213c-.14-2.47,0-5,.08-7.45q.17-8.25.43-16.51c.4-13.1.88-26.22,1.87-39.3.1-1.36-2-1.34-2.12,0-.53,6.23-3.16,12.55-5.64,18.22a72,72,0,0,1-4.57,8.86c-1,1.57-2.32,4-4.12,4.78-1.21.51-3.07-.89-4-1.49a60.12,60.12,0,0,1-7.08-5.33,165,165,0,0,1-16.71-16.42,108.68,108.68,0,0,1-7.92-9.85c-.19-.27-.3-.75-.41-.48a13.09,13.09,0,0,1,.68-1.28,21,21,0,0,1,1.87-2.64,24.14,24.14,0,0,1,5.76-5.19,13.36,13.36,0,0,1,3.26-1.49c-.2.06.14.12.38.28s.74.55,1.11.82c1.85,1.38,3.64,2.84,5.46,4.25a106.59,106.59,0,0,0,13.9,9.4,1.06,1.06,0,0,0,1.56-.63,128.11,128.11,0,0,1,2.82-13.4,172.41,172.41,0,0,1,5-17.09,33.69,33.69,0,0,1,2.58-5.83c1-1.64,2.74-2.49,4.33-3.44a87.74,87.74,0,0,1,17.93-8.47l-1-.27a27.37,27.37,0,0,0,16.29,5.81c4.89.18,10.6-1,13.53-5.33l-1.45.38c4.43,2.56,8.93,5,13.38,7.5,3.27,1.86,6.82,3.7,9.57,6.3a6.9,6.9,0,0,1,1.51,3.08c.62,2,1.1,4,1.57,6.08,2.76,12,4.76,24.29,6.49,36.52a112.83,112.83,0,0,1,1.36,12.3c.1,3.63-1,7.43-1.73,10.94-2.61,12.28-5.85,24.43-9,36.56-1.39,5.29-2.92,10.56-4.17,15.88l1.56-.63c-4.84-3.47-10.74-3.48-16-1.11l1.56,1.2c2.78-13.78,5.35-27.61,7.83-41.45.73-4.06,1.6-8.14,2.05-12.24s-.19-8.82-.46-13.05c-.41-6.48-.92-12.95-1.62-19.4-.26-2.32-.53-4.66-.93-7-.14-.83-.27-2.71-1.36-2.91-2.47-.44-2.07,6-2.14,7.28-.28,5.48-.36,11-.42,16.45s-.07,10.87.1,16.31c.07,2.39.34,4.77.55,7.16.32,3.65.25,7.66,1.2,11.21a1.06,1.06,0,0,0,2.05-.56c-.87-3.21-.8-6.83-1.09-10.13-.2-2.36-.48-4.73-.58-7.1-.18-4.8-.15-9.61-.13-14.41,0-5.67.12-11.33.35-17,.08-2,.18-3.94.37-5.9a14.06,14.06,0,0,1,.21-1.45c0-.23.11-.33,0-.2a1,1,0,0,1-1.59,0c.06.09-.07-.22,0,.07a30.11,30.11,0,0,1,.89,5.26c.37,2.92.65,5.84.92,8.77q.88,9.57,1.37,19.17a45.93,45.93,0,0,1-.19,9.55c-.9,5.61-2,11.2-3,16.78-2.09,11.41-4.22,22.81-6.52,34.18a1.08,1.08,0,0,0,1.56,1.2,13.66,13.66,0,0,1,13.91,1.11,1.07,1.07,0,0,0,1.56-.63c2.09-9,4.72-17.89,7-26.83,2.84-11,6-22.18,7.66-33.47a35,35,0,0,0-.16-9.26c-.65-5.59-1.49-11.16-2.38-16.72-1-6.41-2.14-12.8-3.39-19.17A139.55,139.55,0,0,0,244.31,120a12.64,12.64,0,0,0-1.1-2.75c-.92-1.58-2.86-2.73-4.33-3.72-6.34-4.31-13.33-7.66-19.95-11.49a1.08,1.08,0,0,0-1.45.38c-4.12,6-14.29,4.71-20.12,2.66a23.53,23.53,0,0,1-5.14-2.63c-.56-.38-1.25-1.25-2-1.25A7.5,7.5,0,0,0,188,102a105.15,105.15,0,0,0-10.38,4.68,71.48,71.48,0,0,0-9.06,5.23,9.89,9.89,0,0,0-3.12,4.25c-2.64,5.65-4.27,11.83-5.86,17.83a138,138,0,0,0-3.75,17l1.55-.64a99.91,99.91,0,0,1-12.42-8.26c-2.86-2.17-5.59-4.53-8.56-6.56-1.22-.83-3.28.48-4.41,1.07a22.39,22.39,0,0,0-5,3.82,28.41,28.41,0,0,0-3.53,4.22c-.53.76-2.27,3-1.6,4a127.67,127.67,0,0,0,14.54,17.28,129.65,129.65,0,0,0,16,14.31c1.9,1.4,4.93,3.92,7.51,3.6,3.09-.39,5.26-4.47,6.66-6.83a86.9,86.9,0,0,0,6.54-14.2,50.78,50.78,0,0,0,3.4-13h-2.12c-1,12.93-1.45,25.89-1.86,38.84q-.27,8.33-.44,16.66c0,2.57-.22,5.19-.08,7.76.08,1.36,2.2,1.36,2.12,0"/><rect class="cls-3" x="92.72" y="211.49" width="134.41" height="3"/></g><g id="Devices"><rect class="cls-6" x="154.79" y="240.8" width="2.5" height="4.47" transform="translate(-111.37 352.16) rotate(-79.5)"/><rect class="cls-6" x="146.91" y="239.34" width="2.5" height="4.47" transform="translate(-116.38 343.22) rotate(-79.5)"/><rect class="cls-6" x="139.05" y="237.89" width="2.5" height="4.47" transform="translate(-121.45 334.1) rotate(-79.45)"/><rect class="cls-6" x="178.46" y="245.19" width="2.5" height="4.47" transform="translate(-96.22 379.25) rotate(-79.54)"/><rect class="cls-6" x="170.58" y="243.73" width="2.5" height="4.47" transform="translate(-101.45 369.83) rotate(-79.44)"/><rect class="cls-6" x="162.72" y="242.27" width="2.5" height="4.47" transform="matrix(0.18, -0.98, 0.98, 0.18, -106.33, 361.17)"/><path class="cls-7" d="M52.44,133.29a2.88,2.88,0,0,1-.71-.09c-1.67-.45-2.36-2.7-4.07-9.53-.79-3.15-2.07-8.25-3-9.67-.9,1-2.21,4.62-2.94,6.63-1.76,4.81-2.62,6.94-4.44,7.07s-3.26-1.77-4.6-3.6A15.31,15.31,0,0,0,30.89,122a12.76,12.76,0,0,0-1,2.32c-.64,1.75-1.25,3.4-2.85,3.4s-2.27-1.58-3.54-4.21a20.22,20.22,0,0,0-2.15-3.77c-.93.59-3.05,4.31-4,9.47l-2.95-.54c.84-4.64,3.52-12,7.08-12,2,0,3.26,2.56,4.71,5.53.21.44.48,1,.73,1.48q.08-.21.15-.39c.73-2,1.56-4.25,3.6-4.39,1.78-.14,3.05,1.61,4.4,3.45a16.24,16.24,0,0,0,1.78,2.17,37.8,37.8,0,0,0,2-4.9c1.88-5.13,3.5-9.56,6.46-8.72,2.19.63,3.28,4.16,5.26,12.06a52.4,52.4,0,0,0,2.11,7.23,14.94,14.94,0,0,0,2.21-2.06c1.45-1.54,2.68-2.89,4.22-2.8l-.13,3a.24.24,0,0,0,.14,0,10.22,10.22,0,0,0-2,1.88C55.62,131.7,54.13,133.29,52.44,133.29Z"/><path class="cls-3" d="M1.34,242.68,26,237.12l12.23-2.75.92-.21c-.15,0-.29,0,.13.06,1.17.16,2.34.31,3.52.45L84.39,240c1.36.17,1.34-1.95,0-2.12l-23.58-3-15.69-2-4.81-.62a5,5,0,0,0-1.68-.12L.78,240.64c-1.33.3-.77,2.35.56,2"/><polygon class="cls-8" points="52.11 246.47 17.71 240.36 17.71 194.59 52.11 199.86 52.11 246.47"/><path class="cls-3" d="M52.4,245.44,18,239.34l.78,1V194.59l-1.34,1,34.4,5.27c-.26-.34-.51-.68-.78-1v46.6a1.06,1.06,0,0,0,2.12,0v-46.6a1,1,0,0,0-.77-1L18,193.56a1.09,1.09,0,0,0-1.34,1v45.77a1.05,1.05,0,0,0,.78,1l34.4,6.11c1.34.23,1.91-1.81.57-2.05"/><polygon class="cls-8" points="61.41 243.14 52.12 246.47 52.12 199.86 61.41 196.53 61.41 243.14"/><path class="cls-3" d="M61.13,242.12l-9.3,3.32,1.35,1v-46.6l-.78,1,9.29-3.33-1.34-1v46.6a1.06,1.06,0,0,0,2.12,0v-46.6a1.06,1.06,0,0,0-1.34-1l-9.3,3.33a1.07,1.07,0,0,0-.77,1v46.6a1.07,1.07,0,0,0,1.34,1l9.29-3.33c1.28-.46.73-2.51-.56-2"/><path class="cls-3" d="M18,195.61,23.33,194l3.17-1c1-.31-.38-.2.18-.13l10.14,1.39,24.31,3.33c1.33.18,1.91-1.86.56-2l-24.63-3.38-9.93-1.36c-1.27-.17-2.84.66-4,1l-5.66,1.75c-1.3.41-.74,2.45.56,2.05"/><path class="cls-3" d="M49.2,261.26,1.6,250.7l-.26,0,.78,1v-10l-1.34,1,47.59,10.56.26.06-.77-1v10a1.06,1.06,0,0,0,2.12,0v-10a1.07,1.07,0,0,0-.78-1L1.6,240.7l-.26-.06a1.07,1.07,0,0,0-1.34,1v10a1.06,1.06,0,0,0,.78,1l47.59,10.55.26.06c1.33.3,1.9-1.75.57-2"/><path class="cls-3" d="M84.11,247.92,48.63,261.26l1.35,1v-10l-.78,1L84.67,240l-1.34-1v10a1.06,1.06,0,0,0,2.12,0v-10a1.06,1.06,0,0,0-1.34-1L48.63,251.25a1.09,1.09,0,0,0-.77,1v10a1.06,1.06,0,0,0,1.34,1L84.67,250c1.27-.48.72-2.53-.56-2.05"/><path class="cls-3" d="M107.44,296.62l22.72-12.78,1.51-.85c.74-.41-.56-.07-.43-.06l1.88.28,9.91,1.44,59.61,8.67,3.19.47c1.33.19,1.91-1.85.56-2.05l-50.84-7.39L132.64,281a3,3,0,0,0-1.73,0l-3,1.66-14.1,7.93-7.48,4.21a1.06,1.06,0,0,0,1.07,1.83"/><path class="cls-3" d="M184,321l-49.7-10.48-26.9-5.67.78,1c-.06-3.4-.12-6.79-.19-10.19l-1.34,1,49.71,10.48,26.9,5.68-.78-1,.18,10.19a1.06,1.06,0,0,0,2.12,0l-.18-10.19a1.07,1.07,0,0,0-.78-1l-49.71-10.48-26.89-5.67a1.08,1.08,0,0,0-1.35,1c.07,3.4.13,6.79.19,10.19a1.07,1.07,0,0,0,.78,1l49.7,10.48,26.9,5.67c1.33.28,1.9-1.76.56-2"/><path class="cls-3" d="M205.54,302.21,183,321.29l1.8.75-.18-10.13c0,.5-.59.92,0,.41l1.19-1,4.1-3.45,17-14.34-1.81-.76.18,10.19a1.06,1.06,0,0,0,2.12,0l-.18-10.19a1.07,1.07,0,0,0-1.81-.74l-17.22,14.53q-2,1.69-4,3.38c-.52.44-1.71,1.12-1.69,1.92l.18,10.19a1.07,1.07,0,0,0,1.81.75L207,303.7c1.05-.88-.46-2.37-1.5-1.49"/><path class="cls-3" d="M33.16,194.3l-10-40.15L7.81,92.09,4.87,80.22a1.06,1.06,0,0,0-2.05.56l10,40.16q7.7,31,15.4,62.06l2.94,11.87a1.06,1.06,0,0,0,2-.57"/><path class="cls-3" d="M45.92,196.81q4.3-21.23,8.62-42.45,6-29.54,12-59.08c.39-1.9.77-3.8,1.16-5.7.27-1.33-1.78-1.9-2.05-.56L57,131.46Q51,161,45,190.55c-.39,1.9-.77,3.8-1.16,5.69-.27,1.34,1.77,1.91,2,.57"/><path class="cls-3" d="M150.48,256a8,8,0,0,1-2.44-.38c-6.14-2-8.61-10.78-5.63-20.06,2.53-7.91,8.2-13.43,13.8-13.43a8,8,0,0,1,2.44.38c6.13,2,8.61,10.78,5.63,20.06C161.75,250.44,156.07,256,150.48,256Zm5.73-30.87c-4.17,0-8.88,4.88-11,11.34-2.38,7.43-.69,14.89,3.69,16.29a4.94,4.94,0,0,0,1.53.24c4.17,0,8.87-4.88,11-11.35,2.38-7.42.69-14.88-3.7-16.28A4.84,4.84,0,0,0,156.21,225.09Z"/><path class="cls-3" d="M135.7,244.17a3.22,3.22,0,0,1-.93-.14c-2.06-.66-3-3.38-2.07-6.19.76-2.37,2.51-4,4.35-4a3.1,3.1,0,0,1,2.83,1.82,6.06,6.06,0,0,1,.17,4.5C139.31,242.54,137.52,244.17,135.7,244.17Zm1.36-7.29c-.32,0-1.11.65-1.5,1.88-.46,1.43,0,2.36.13,2.41h0c.25,0,1.07-.56,1.49-1.88a3.09,3.09,0,0,0,0-2.22c-.07-.14-.14-.19-.15-.19Z"/><path class="cls-3" d="M116.05,240.52a2.85,2.85,0,0,1-.92-.14c-2.07-.66-3-3.38-2.08-6.18.76-2.37,2.51-4,4.35-4a2.92,2.92,0,0,1,.93.15,3.27,3.27,0,0,1,1.9,1.67,6.08,6.08,0,0,1,.17,4.51C119.64,238.93,117.9,240.52,116.05,240.52Zm1.36-7.28c-.26,0-1.08.56-1.5,1.88s0,2.35.13,2.4h0c.31,0,1.1-.64,1.5-1.88a3.14,3.14,0,0,0,0-2.22c-.07-.14-.13-.18-.14-.18Z"/><path class="cls-3" d="M180.86,261a8.09,8.09,0,0,1-2.45-.38c-3-1-5.28-3.69-6.3-7.64a22.87,22.87,0,0,1,.67-12.42c2.53-7.9,8.21-13.42,13.8-13.42a8,8,0,0,1,2.44.37c6.14,2,8.61,10.78,5.64,20.06C192.12,255.43,186.45,261,180.86,261Zm5.72-30.86c-4.17,0-8.87,4.87-10.94,11.34a19.86,19.86,0,0,0-.62,10.76c.75,2.91,2.28,4.87,4.31,5.52a4.9,4.9,0,0,0,1.53.24c4.16,0,8.87-4.88,10.94-11.34,2.38-7.43.69-14.88-3.69-16.29A4.89,4.89,0,0,0,186.58,230.09Z"/><path class="cls-3" d="M130.29,292.12V241.48a1.06,1.06,0,0,0-2.12,0v50.64a1.06,1.06,0,0,0,2.12,0"/><path class="cls-3" d="M153,295.45V255.7a1.06,1.06,0,0,0-2.12,0v39.75a1.06,1.06,0,0,0,2.12,0"/><path class="cls-3" d="M182.52,302.26V259.42a1.06,1.06,0,0,0-2.12,0v42.84a1.06,1.06,0,0,0,2.12,0"/><path class="cls-3" d="M145.46,252.17a2.29,2.29,0,1,1-2.29-2.29,2.29,2.29,0,0,1,2.29,2.29"/><path class="cls-3" d="M159.4,221.3a2.29,2.29,0,1,1-2.29-2.29,2.28,2.28,0,0,1,2.29,2.29"/><path class="cls-3" d="M165.24,247.17a2.29,2.29,0,1,1-2.29-2.29,2.29,2.29,0,0,1,2.29,2.29"/><path class="cls-3" d="M175.94,258a2.29,2.29,0,1,1-2.29-2.29,2.28,2.28,0,0,1,2.29,2.29"/><path class="cls-3" d="M189.75,226.5a2.29,2.29,0,1,1-2.29-2.29,2.29,2.29,0,0,1,2.29,2.29"/><path class="cls-3" d="M195.92,252.17a2.29,2.29,0,1,1-2.29-2.29,2.3,2.3,0,0,1,2.29,2.29"/><rect class="cls-3" x="126.2" y="223.64" width="3" height="19.99" transform="translate(-125.3 316.58) rotate(-79.49)"/><rect class="cls-3" x="123.91" y="230.78" width="3" height="19.98" transform="translate(-134.2 320.16) rotate(-79.49)"/></g><g id="Printer"><polygon class="cls-4" points="374.8 339.3 304.28 306.96 351.55 267.28 413.04 281.29 374.8 339.3"/><path class="cls-7" d="M348.76,283.75l18.55,7.74a1.28,1.28,0,0,0,1.43-.3l10.2-10.79a1.29,1.29,0,0,0-.58-2.13L359.86,273a1.27,1.27,0,0,0-1.17.24l-10.25,8.31a1.3,1.3,0,0,0,.32,2.2"/><path class="cls-8" d="M367.8,292.59h0a2.23,2.23,0,0,1-.88-.18l-18.55-7.74a2.29,2.29,0,0,1-.56-3.89l10.25-8.32a2.34,2.34,0,0,1,2.07-.42l18.5,5.27a2.3,2.3,0,0,1,1,3.78l-10.2,10.78A2.29,2.29,0,0,1,367.8,292.59ZM359.51,274a.29.29,0,0,0-.19.05l-10.25,8.32a.28.28,0,0,0-.1.27.27.27,0,0,0,.17.22l18.55,7.75a.29.29,0,0,0,.32-.07l10.2-10.79a.26.26,0,0,0,.07-.27.25.25,0,0,0-.2-.2L359.58,274Z"/><rect class="cls-3" x="310.82" y="253.94" width="49.8" height="3" transform="matrix(0.83, -0.55, 0.55, 0.83, -85.23, 227.86)"/><rect class="cls-3" x="364.93" y="232.75" width="3" height="62.41" transform="translate(7.21 537.63) rotate(-73.07)"/><path class="cls-8" d="M380.62,211.67c-4,12.45-13.56,20.5-21.39,18s-10.94-14.63-7-27.07,13.57-20.51,21.4-18,10.94,14.63,6.94,27.08"/><path class="cls-3" d="M362.19,231.62a11.26,11.26,0,0,1-3.42-.53c-8.6-2.75-12.15-15.75-7.92-29,3.68-11.48,11.85-19.49,19.87-19.49a11,11,0,0,1,3.42.53c4.29,1.37,7.45,5.23,8.9,10.86a33.3,33.3,0,0,1-1,18.1C378.38,223.6,370.21,231.62,362.19,231.62Zm8.53-46c-6.62,0-13.77,7.32-17,17.41-3.73,11.63-1,22.93,6,25.18a8.07,8.07,0,0,0,2.5.39c6.62,0,13.77-7.32,17-17.41a30.35,30.35,0,0,0,.93-16.43c-1.18-4.6-3.63-7.71-6.91-8.76A8.37,8.37,0,0,0,370.72,185.64Z"/><path class="cls-7" d="M378.22,210.56c-2.11,6.58-7.18,10.84-11.31,9.52s-5.79-7.74-3.68-14.32,7.18-10.84,11.31-9.51,5.79,7.73,3.68,14.31"/><path class="cls-8" d="M400.81,220.08c-4,12.45-13.57,20.5-21.4,18s-10.94-14.63-7-27.08,13.57-20.5,21.4-18,10.93,14.63,6.95,27.08"/><path class="cls-3" d="M382.37,240a11.26,11.26,0,0,1-3.42-.53c-4.29-1.38-7.45-5.24-8.9-10.87a33.27,33.27,0,0,1,1-18.09c3.68-11.48,11.84-19.49,19.86-19.49a11.25,11.25,0,0,1,3.42.52c8.6,2.76,12.15,15.75,7.92,29C398.56,232,390.39,240,382.37,240Zm8.53-46c-6.62,0-13.77,7.32-17,17.4a30.39,30.39,0,0,0-.93,16.44c1.18,4.59,3.63,7.7,6.91,8.75a8.07,8.07,0,0,0,2.5.39c6.62,0,13.77-7.32,17-17.41,3.73-11.64,1-22.94-6-25.19A8.06,8.06,0,0,0,390.9,194.05Z"/><path class="cls-3" d="M353.93,262c-2.08-.75-4.94-1.79,2.88-32.9l4.85,1.22c-2.92,11.62-5.64,25.62-4.94,28a1.82,1.82,0,0,0-1.08-1Z"/><path class="cls-3" d="M371.47,341.48a6.73,6.73,0,0,1-1.31-.15c-6.43-1.29-29-12.42-35.71-15.8-10.71-5.37-28.9-14.73-30.4-17.21-.77-1.27-1.73-2.86,10.73-47.92,4.74-17.15,12.54-44.25,13.5-46,1.35-2.5,6.58-5.24,22.39-11.75l1.9,4.63c-5,2-18.1,7.44-19.88,9.51-2.08,5.23-23.29,79.8-24.07,89.12,6.14,4.53,52.53,28.07,61.79,30.43,2.45-7,9.57-40.46,14.39-63.11,5.53-26,7-32.72,7.68-34,.19-.34.49-.92.89-1.68C404,217.37,406.46,215.41,409.23,216a2.83,2.83,0,0,1,1.81,1.25c2.94,4.44,4.23,54.12,2.38,63l-.1.47L374,340.26h0a2.58,2.58,0,0,1-.61.65A3.23,3.23,0,0,1,371.47,341.48Zm25.45-100c-.69,1.92-4,17.56-7.23,32.7-5.23,24.56-8.6,40-10.89,49.71l29.81-45.12c1.52-8.8.34-44.42-1.17-55.76-1.71,2.45-4.64,7.31-9.64,16.83C397.42,240.6,397.12,241.17,396.92,241.52Z"/><polygon class="cls-8" points="378.75 268.39 372.67 270.57 372.67 261.85 378.75 259.67 378.75 268.39"/><path class="cls-3" d="M378.47,267.37l-6.08,2.18,1.34,1v-8.72l-.78,1,6.09-2.18-1.35-1v8.72a1.06,1.06,0,0,0,2.12,0v-8.72a1.07,1.07,0,0,0-1.34-1l-6.08,2.18a1.1,1.1,0,0,0-.78,1v8.72a1.06,1.06,0,0,0,1.34,1l6.09-2.18c1.27-.45.72-2.5-.57-2"/><polyline class="cls-3" points="354.78 256.53 360.69 254.86 378.75 259.67 372.67 261.85"/><path class="cls-3" d="M355.06,257.56l5.89-1.67c-.48.14-.71,0-.25.07l1,.27,3.51.93,13.28,3.53v-2l-6.08,2.18c-1.28.46-.73,2.5.56,2l6.09-2.18a1.07,1.07,0,0,0,0-2L365.46,255c-1.45-.39-3.25-1.24-4.77-1.24a12.82,12.82,0,0,0-3.07.83l-3.12.88a1.06,1.06,0,0,0,.56,2.05"/><path class="cls-7" d="M368.59,261.39h-3a26.39,26.39,0,0,1,.27-3.73,4.19,4.19,0,0,0-.68-3.67c-.33-.53-2.61-.81-4.12-1-4.28-.52-10.14-1.23-11.95-7.29-3.2-10.71,11.6-29,16.21-34.4l2.27,2c-8.57,10-17.81,24.22-15.61,31.58,1.16,3.88,4.64,4.59,9.44,5.17,2.81.34,5.23.64,6.31,2.4a7.08,7.08,0,0,1,1.11,5.63A22.49,22.49,0,0,0,368.59,261.39Z"/><polygon class="cls-8" points="372.67 270.57 354.78 264.88 354.78 256.53 372.67 261.85 372.67 270.57"/><path class="cls-3" d="M373,269.55l-17.89-5.69.78,1v-8.35l-1.34,1,17.89,5.31-.78-1v8.72a1.06,1.06,0,0,0,2.12,0v-8.72a1.08,1.08,0,0,0-.78-1l-17.89-5.32a1.07,1.07,0,0,0-1.34,1v8.35a1.09,1.09,0,0,0,.78,1l17.89,5.69c1.3.42,1.86-1.63.56-2"/><path class="cls-3" d="M386.17,217.24,404.51,224c2.14.78,3.06-2.63.94-3.41l-18.34-6.73c-2.15-.78-3.06,2.63-.94,3.41"/><rect class="cls-3" x="360.77" y="235.46" width="3" height="64.66" transform="translate(0.18 535.82) rotate(-72.98)"/><rect class="cls-3" x="374.88" y="269.13" width="46.36" height="3" transform="translate(-56.05 430.25) rotate(-53.58)"/><path class="cls-3" d="M363,268l1.76,10.26a.65.65,0,0,0,1.24.15l3.69-8.36Z"/></g></g></g></svg>