<svg xmlns="http://www.w3.org/2000/svg" viewBox="0 0 2090.01 462.57"><defs><style>.cls-1{fill:none;}.cls-2{fill:#e11e25;}.cls-3{fill:#fdd304;}.cls-4{fill:#4cab47;}.cls-5{fill:#433a96;}</style></defs><title>lines</title><g id="Слой_2" data-name="Слой 2"><g id="Слой_3" data-name="Слой 3"><polyline class="cls-1" points="1790.02 287.46 1542.33 287.46 1542.33 462.57"/><path class="cls-2" d="M6,120.41c6.79.79,17.76,3.34,31.64,6.56,41.42,9.62,110.76,25.71,135.71,7.93,24.49-17.46,41.4-27,78.9-4.58,40.26,24.07,80.14,9.15,109.27-1.74,6.6-2.47,12.83-4.8,18.27-6.35,49.41-14,98.15-.89,156.72,17.76,31.59,10.07,49.59-.37,70.42-12.45,15-8.72,32.09-18.61,55.79-20.61,34.72-3,55.89,9.64,74.57,20.75,11.16,6.63,21.69,12.88,33.75,14.78,17.6,2.76,25.17-2.77,35.64-10.42,7.9-5.77,16.85-12.31,31.62-16.37.77-.21,1.53-.37,2.28-.54v9.42c-13.06,3.62-20.91,9.35-28.5,14.89-10.85,7.93-21.11,15.43-42.46,12.07-13.8-2.17-25.07-8.86-37-16-18.36-10.91-37.35-22.18-69.11-19.49-21.66,1.83-37.07,10.77-52,19.41-21.77,12.63-42.35,24.55-77.8,13.26-57.08-18.19-104.48-31-151.43-17.68-5.08,1.44-11.15,3.71-17.57,6.11-29.13,10.9-73.15,27.36-117.18,1-32.74-19.59-46.14-12-68.88,4.18-28.32,20.18-97.39,4.15-143.1-6.46-13.07-3-24.35-5.66-30.63-6.39Z"/><path class="cls-3" d="M.21,95.08c1.19-4.33,5.38-3.33,7.88-2.74,1.83.44,4.9,1.2,9.89,2.47,11.68,3,31.23,8,58.09,15.08,40.62,10.64,56.66,4.76,72.18-.93a159.42,159.42,0,0,0,17.59-8.2c22.2-11.4,49.83-25.58,87.14.49,33.21,23.21,56.67,15.84,92.17,4.68,6.49-2,13.2-4.14,20.41-6.19,49-13.95,112.94-11.24,171,7.25,32.18,10.26,51.92.1,74.77-11.67,16.46-8.47,33.48-17.22,56.63-19.18,34.63-3,54,8.84,71,19.23,10.29,6.27,20,12.19,32.09,14.08,17.6,2.77,25.17-2.76,35.64-10.41,7.9-5.77,16.85-12.31,31.62-16.37.77-.21,1.53-.37,2.28-.54v9.42c-13.06,3.61-20.91,9.34-28.5,14.89-10.85,7.93-21.1,15.41-42.46,12.07-13.87-2.18-24.35-8.56-35.44-15.32-16.63-10.13-33.84-20.6-65.5-17.92-21.34,1.81-37.54,10.14-53.2,18.2-23.64,12.17-46,23.65-81.75,12.25-56.39-18-118.33-20.64-165.69-7.17-7.09,2-13.74,4.11-20.17,6.13-35.34,11.1-63.27,19.87-100.17-5.92-32.79-22.91-55.62-11.18-77.71.16a167.47,167.47,0,0,1-18.62,8.64c-16.05,5.89-34.26,12.56-77.65,1.19C21.93,105.18,8.37,101.8,5,101l-.05.19C3.46,100.79-1,99.49.21,95.08"/><path class="cls-4" d="M15.83,72.33c.11,0,11.43,4.76,56.1,11C139,92.73,159.78,77.92,176.46,66c11.8-8.42,22-15.69,43.24-11.51,11.61,2.29,23,8.94,35,16,22.07,12.91,44.89,26.26,74.55,17.82l7.79-2.23c47.73-13.7,107.12-30.74,173.51-10.44,42.46,13,64.49.68,87.81-12.35,15.44-8.63,31.4-17.54,53.52-19.42,35.07-3,60.3,9.9,82.57,21.25,12.72,6.48,24.73,12.6,36.61,14.47,17.61,2.76,25.17-2.77,35.64-10.41,7.89-5.78,16.85-12.32,31.62-16.37.77-.22,1.53-.37,2.28-.54v9.41C827.55,65.3,819.7,71,812.11,76.57,801.26,84.5,791,92,769.65,88.64c-13.32-2.09-26-8.53-39.35-15.35-21.18-10.8-45.2-23-77.63-20.29-20.15,1.71-34.57,9.76-49.83,18.29-24,13.39-48.76,27.24-95,13.11-63.79-19.51-121.74-2.88-168.3,10.49l-7.81,2.23c-33.42,9.51-59.06-5.49-81.69-18.72C238.74,71.76,228,65.49,217.93,63.51c-17.36-3.43-25.24,2.19-36.14,10-17.06,12.17-40.41,28.83-111.13,18.94C23.94,85.88,12.56,80.9,12.09,80.69Z"/><path class="cls-5" d="M13.84,43.34c.29.07,29,7,35.11,8.3C61,54.22,81.64,57.41,111.3,58c23.64.42,34-7.12,46-15.86,10.94-7.93,23.34-16.93,46.81-19.14,23.18-2.17,42.76,9.45,61.69,20.69C287,56.17,306.9,68,330.92,61.18c38.53-11,135-34.27,198.2-14.13C560.28,57,579.59,44.72,602,30.53c16.94-10.76,34.46-21.88,58.57-23.92,34.29-2.91,53.53,12,70.49,25.15,11,8.5,20.44,15.84,32.64,17.75,17.6,2.77,25.16-2.76,35.63-10.41,7.9-5.77,16.85-12.31,31.62-16.37a44.24,44.24,0,0,1,9.71-1.57v9.17a36.16,36.16,0,0,0-7.28,1.24c-13.15,3.61-21,9.36-28.64,14.93-10.85,7.93-21.1,15.41-42.46,12.07C747.7,56.29,736.86,47.89,725.4,39,709,26.28,692,13.14,661.29,15.74c-21.86,1.85-38.42,12.36-54.43,22.52C584.6,52.4,561.58,67,526.34,55.78,463.79,35.85,362.86,61.62,333.42,70c-27.81,7.91-50.41-5.51-72.27-18.48-18.49-11-35.95-21.33-56.16-19.44-21,2-31.33,9.48-42.28,17.43-12.25,8.89-25,18.1-51.58,17.6C80.74,66.56,59.5,63.26,47,60.6c-6.22-1.33-34.16-8.06-35.34-8.35Z"/><path class="cls-2" d="M2073.73,158.9c-5.46-3.25-11.92-8.57-19.39-14.74-19.64-16.22-46.55-38.43-69.43-32-101,28.13-121.44,17.7-141.25,7.61-12.57-6.39-24.45-12.44-59.54-8.06-14.9,1.85-27.12,7.31-38.94,12.58-15.11,6.74-30.75,13.73-51.35,12.88-69.53-2.8-107.36-20.2-137.76-34.18-20.41-9.39-36.53-16.8-56.45-17.09-23.88-.35-47.6,10.61-70.52,21.2-19.58,9-38.07,17.59-56.53,19.44-20.76,2.08-35.47-6.21-48.46-13.53s-24.43-13.76-40.21-9.57c-13.6,3.62-21.75,9.37-29.63,14.94-6.88,4.86-13.54,9.54-22.74,11.68v-9.5c6.26-1.91,11.26-5.43,17.15-9.58,8.17-5.78,17.43-12.32,32.71-16.37,19.61-5.21,33.79,2.77,47.49,10.49,12.31,6.93,25.07,14.09,42.72,12.32,16.82-1.68,34.59-9.89,53.41-18.59,23.91-11,48.53-22.46,74.75-22.1,22,.32,39.78,8.51,60.39,18,29.62,13.63,66.48,30.58,134.07,33.31,18.34.75,32.25-5.47,47-12,12.46-5.56,25.35-11.32,41.69-13.35,38.08-4.75,51.85,2.26,65.18,9.05,18.15,9.24,36.92,18.79,134.2-8.32,27.78-7.74,56.94,16.32,78.22,33.89,7.17,5.92,13.36,11,18.2,13.91"/><path class="cls-3" d="M1231.53,87.51c6.26-1.91,11.26-5.43,17.15-9.59,8.17-5.77,17.43-12.31,32.71-16.37,19.61-5.21,33.78,2.78,47.49,10.49,12.31,6.93,25,14.1,42.72,12.33,16.64-1.66,33.83-8.08,52-14.87,23.82-8.89,48.44-18.07,74.8-17.7,26,.37,55.61,10.81,81.1,21l2.82,1.15c12.28,5,49.64,20.27,88.18,26.71,27,4.52,46.6-3.63,71.37-13.94,4-1.68,8.17-3.4,12.48-5.13,48.85-19.6,79.48-7.56,106.51,3,19.45,7.64,37.83,14.85,61.21,9.56,12.94-2.94,22.56-5.83,31-8.38,14.33-4.31,26.7-8,48.14-9.88,33.37-2.88,75.54,48.86,76,49.38l-7.51,5.59C2057.16,115.09,2024,83.11,2002.11,85c-20.43,1.76-31.78,5.17-46.16,9.5-8.64,2.6-18.43,5.54-31.7,8.55-26.32,6-47-2.14-66.94-10-26.57-10.44-54-21.23-99.31-3.08-4.27,1.71-8.38,3.42-12.36,5.08-25.18,10.49-46.93,19.54-76.74,14.56-39.61-6.62-77.72-22.19-90.24-27.3l-2.76-1.12c-24.65-9.82-53.16-19.92-77.62-20.27S1450,69.47,1427,78.05c-18.81,7-36.56,13.65-54.47,15.44-20.76,2.08-35.47-6.21-48.46-13.53s-24.43-13.76-40.21-9.57c-13.6,3.61-21.75,9.37-29.63,14.93-6.88,4.86-13.54,9.55-22.74,11.68Z"/><path class="cls-4" d="M1231.53,57.64c6.26-1.91,11.27-5.42,17.15-9.58,8.17-5.77,17.43-12.31,32.71-16.37,19.61-5.21,33.78,2.77,47.49,10.49,12.31,6.93,25,14.1,42.72,12.33,15.94-1.6,33-6,51-10.59,25.95-6.65,52.8-13.54,80-13.14,42.59.62,69.9,11.56,96.31,22.14,21.38,8.56,41.56,16.65,69.53,19.71,47.58,5.21,65.31-2.18,84.07-10,9.91-4.14,20.16-8.41,34.77-10.6,39.26-5.89,56.73,2.75,73.62,11.12,23.34,11.55,45.39,22.47,131.7-9.81C2031,39,2060.29,72.06,2079.69,94c1.95,2.2,3.81,4.3,5.59,6.25l-7.11,6.06c-1.81-2-3.7-4.11-5.68-6.35-18.71-21.12-44.35-50-76.46-38-90.27,33.76-115.27,21.38-139.44,9.41-16.26-8-31.62-15.65-67.85-10.22-13.42,2-22.67,5.87-32.46,10-19.08,8-38.8,16.19-88.9,10.7-29.29-3.21-51.05-11.93-72.08-20.36-25.59-10.25-52-20.85-92.83-21.44-25.79-.34-52.07,6.34-77.4,12.84-18.42,4.72-35.81,9.17-52.5,10.84-20.76,2.08-35.47-6.21-48.46-13.52s-24.43-13.77-40.21-9.57c-13.6,3.61-21.75,9.36-29.63,14.93-6.88,4.86-13.54,9.54-22.74,11.68Z"/><path class="cls-5" d="M1231.53,24.23c3.13-1.77,6.16-3.91,9.47-6.25,8.17-5.77,17.43-12.31,32.71-16.36,18.81-5,32.56,2.46,47.1,10.36,15,8.13,32,17.35,59.73,17.59,28.57.27,47-6.95,64.87-13.91,17.16-6.67,33.38-13,56.2-12,53.33,2.29,90.05,16.88,122.45,29.74C1663.27,49,1694.24,61.28,1738,42.25c39-16.95,85.37-28,160.63,5.61,22.93,10.24,43.76,1.56,65.82-7.62,34.54-14.39,73.69-30.69,125.57,26l-7.09,6.07c-47.34-51.71-80.08-38.08-114.73-23.64-23,9.57-46.77,19.47-73.54,7.51-75.39-33.67-118.39-20.53-152.77-5.57-47.47,20.66-81.74,7-121.42-8.72C1588.78,29.3,1552.87,15,1501.19,12.81c-20.78-.89-36.06,5.06-52.25,11.36-17.86,7-38.17,14.83-68.48,14.56s-49.1-10.52-64.29-18.76c-14.45-7.85-24.89-13.52-40-9.52-13.6,3.61-21.74,9.37-29.63,14.93-4.81,3.41-9.52,6.72-15.06,9.14Z"/></g></g></svg>