<svg xmlns="http://www.w3.org/2000/svg" viewBox="0 0 2090.01 245.72"><defs><style>.cls-1{fill:#e11e25;}.cls-2{fill:#433a96;}.cls-3{fill:#fdd304;}.cls-4{fill:#4cab47;}</style></defs><title>logo</title><g id="Слой_2" data-name="Слой 2"><g id="Лого"><g id="Easyfest"><path class="cls-1" d="M924.31,213.2c88.5,18.52,146.73,18.09,220,.07,5.34-1.32,5.4-9.76,0-8.54-96.32,21.9-141.22,11.65-220-.07-5.44-.81-5.54,8.53,0,8.54Z"/><path class="cls-2" d="M924.23,126.85c11.73,4,24.8,4.76,33.71-5.21,6.52-7.3,8.42-17.61,10-26.93.28-1.6.56-3.2.94-4.77,0,.11.6-1.61.28-1-1.09,2.2,0-.12,1.72-.33,1.53-.19,3.31,12.22,3.64,13.6,2.29,9.49,12.19,12.78,20.43,7.55,8.69-5.51,8.51-19.38,8.77-28.32.17-5.93.12-11.86.59-17.78a34.46,34.46,0,0,1,1.37-7.26c.63-2.07,2.22-3.21,2.08-3.39,6.1,8-3.35,24.49,7.82,30.17,9.12,4.63,15.64-5.89,17.65-13,3-10.75,2.73-22.61,3.15-33.67.23-6.06-1.34-24.27,4.72-28.23-2.22,1.45-1,.1,0,3.07a30.74,30.74,0,0,1,1.24,8.42c.43,7.21.06,14.47.16,21.69.17,12.32,1.28,26.39,10.53,35.53,1.78,1.75,4.23,1.48,6,0,8-6.57,8.2-17.57,8.18-27.12,0-.87.49-12.71,1.08-12.43,2.76,1.3,3,10.42,3.29,12.77,1.24,10.75,1.16,22.08,5,32.32,3.07,8.14,11.55,10,16.63,2.36,1.83-2.76,3.66-17.71,7.48-10.59,2.75,5.13,2.23,12.59,3.43,18.2,4.29,20,23.14,23.18,40.9,20.94,5.39-.67,5.45-9.22,0-8.53-9.65,1.21-23.24,2.59-29.57-6.68-3.77-5.54-4-13.09-4.91-19.5-.8-5.46-2.44-11-7.47-14-8-4.74-13,2.55-15,9.43-.51,1.74-1,3.48-1.59,5.2-1.14,3.29-1.06,2.43-2.18-.55-2.26-6-2.67-12.7-3.26-19-.84-8.91-.22-21.55-6.85-28.54-5.79-6.12-13.4,0-14.86,6.35-2.43,10.52,3.24,25.52-6.33,33.33h6c-10.79-10.65-8-30.66-8-44.44,0-8.64.57-23.77-10.35-26.32-9.36-2.19-11.28,15.13-11.89,20.61-1.51,13.43-.71,27-2.51,40.44-.58,4.31-1.29,9.86-4.32,13.23-4.33,4.84-4-8-4-10-.24-8.27-2-24.64-14.38-18.76-8.62,4.1-8,18.84-8.23,26.58-.18,6.93,2.35,27.84-6.33,30.94s-7.42-13.8-10.79-19.13c-4.18-6.61-14.62-4.33-17.25,2.39-2.79,7.13-2.62,15.28-5.38,22.55-5,13.27-17.22,13.63-29.15,9.53-5.22-1.8-7.44,6.45-2.26,8.23Z"/><path class="cls-3" d="M928.49,175.73l-.08-.09-6,6c9.44,9.2,25.8,29.95,34.65,9.16,2.6-6.12,9.09-19.76,15.2-7.74,3.37,6.65,7.6,19.25,17.7,15.12,8.94-3.65,11.44-15.75,18.93-21.34,11.19-8.36,13.79,11.71,20.79,16,9.82,6,17,.31,22.67-7.85,4-5.76,10.23-13.54,16.15-4.76,3,4.43,3.9,9.91,7,14.29,1.72,2.44,5.79,3.07,7.37,0,3.92-7.6,9.67-15.78,19.32-13.94,8.29,1.57,14.59,9.6,18.79,16.28a4.37,4.37,0,0,0,4.81,2c13.52-3.05,19.32-14.85,23.53-27,1.81-5.21-6.44-7.43-8.23-2.27-3.22,9.24-7.13,18.63-17.57,21l4.82,2c-5.88-9.39-14.14-18.35-25.49-20.51-12.84-2.44-22,7.87-27.35,18.17h7.37c-5.73-8.15-6.15-18.77-17-22.23-11.49-3.67-17.62,8.91-23.32,16.06-8.55,10.73-14.22-11.86-20.06-15.27-9.61-5.59-19.3.06-25.27,8-3,4-5.36,8.38-8.63,12.08-4.09,4.62-7.66-7.29-8.94-10.11-3.83-8.41-13.14-11.67-21-6.3-6,4.12-7.44,11.72-10.69,17.77-2.74,5.11-16.71-11.91-19.48-14.62-3.95-3.85-9.85,2.06-6,6l.08.08c3.81,4,9.84-2.06,6-6Z"/><path class="cls-4" d="M926.27,161.05l29,.82a4.35,4.35,0,0,0,4.27-4.27q.42-5.59.83-11.19-2.13,2.15-4.27,4.27l20.21.74-4.27-4.27c-.18,3-.37,6-.55,9.07a4.29,4.29,0,0,0,4.27,4.27l17.9.34c1.72,0,3.84-1.31,4.12-3.13a114.7,114.7,0,0,0,1.29-17c-1.43,1.42-2.85,2.85-4.27,4.27l24.47-.53a4.34,4.34,0,0,0,4.27-4.27l.57-17.42c-1.43,1.42-2.85,2.85-4.27,4.27h23.9a4.31,4.31,0,0,0,4.27-4.27V92.16q-2.13,2.15-4.27,4.27l22.77-.18L1062.26,92c-.5,19.76-1.1,39.53-1.14,59.3a4.3,4.3,0,0,0,4.27,4.26l18.21-.14a4.32,4.32,0,0,0,4.27-4.27V117.5l-4.27,4.27,21.2.76-4.27-4.26-.15,36.39a4.31,4.31,0,0,0,4.27,4.27l39.58.7c5.51.1,5.5-8.44,0-8.53l-39.58-.71,4.27,4.27.15-36.39a4.31,4.31,0,0,0-4.27-4.27l-21.2-.77a4.3,4.3,0,0,0-4.27,4.27v33.64l4.27-4.27-18.21.15,4.27,4.27c0-19.77.63-39.54,1.14-59.3a4.3,4.3,0,0,0-4.27-4.27l-22.77.17a4.32,4.32,0,0,0-4.27,4.27v30.62q2.15-2.13,4.27-4.27h-23.9a4.33,4.33,0,0,0-4.27,4.27L1015,140.2q2.15-2.13,4.27-4.27l-24.47.53a4.31,4.31,0,0,0-4.27,4.27,99,99,0,0,1-1,14.7l4.11-3.13-17.9-.34,4.27,4.26c.18-3,.36-6.05.55-9.07a4.31,4.31,0,0,0-4.27-4.27l-20.21-.73a4.31,4.31,0,0,0-4.26,4.26L951,157.6l4.27-4.27-29-.82c-5.51-.15-5.5,8.39,0,8.54Z"/></g><g id="Линии"><path class="cls-1" d="M6,207.23c6.79.79,17.76,3.34,31.64,6.56,41.42,9.62,110.76,25.71,135.71,7.93,24.49-17.46,41.4-27,78.9-4.58,40.26,24.07,80.14,9.15,109.27-1.74,6.6-2.47,12.83-4.8,18.27-6.35,49.41-14.05,98.15-.89,156.72,17.76,31.59,10.07,49.59-.37,70.42-12.45,15-8.72,32.09-18.61,55.79-20.61,34.72-3,55.89,9.64,74.57,20.75,11.16,6.63,21.69,12.89,33.75,14.78,17.6,2.76,25.17-2.77,35.64-10.42,7.9-5.77,16.85-12.31,31.62-16.37.77-.21,1.53-.37,2.28-.54v9.42c-13.06,3.62-20.91,9.35-28.5,14.89-10.85,7.93-21.11,15.43-42.46,12.07-13.8-2.17-25.07-8.86-37-16-18.36-10.91-37.35-22.18-69.11-19.49-21.66,1.83-37.07,10.77-52,19.41-21.77,12.63-42.35,24.55-77.8,13.26-57.08-18.19-104.48-31-151.43-17.68-5.08,1.44-11.15,3.71-17.57,6.11-29.13,10.9-73.15,27.36-117.18,1-32.74-19.59-46.14-12-68.88,4.18-28.32,20.18-97.39,4.15-143.1-6.46-13.07-3-24.35-5.66-30.63-6.39Z"/><path class="cls-3" d="M.21,181.9c1.19-4.33,5.38-3.33,7.88-2.74,1.83.44,4.9,1.2,9.89,2.47,11.68,3,31.23,8,58.09,15.08,40.62,10.64,56.66,4.76,72.18-.93a161.12,161.12,0,0,0,17.59-8.19c22.2-11.41,49.83-25.59,87.14.48,33.21,23.21,56.67,15.84,92.17,4.68,6.49-2,13.2-4.14,20.41-6.19,49-13.95,112.94-11.24,171,7.25,32.18,10.26,51.92.1,74.77-11.67,16.46-8.47,33.48-17.22,56.63-19.18,34.63-3,54,8.84,71,19.23,10.29,6.27,20,12.19,32.09,14.08,17.6,2.77,25.17-2.76,35.64-10.41,7.9-5.77,16.85-12.31,31.62-16.37.77-.21,1.53-.37,2.28-.54v9.42c-13.06,3.61-20.91,9.34-28.5,14.89-10.85,7.93-21.1,15.42-42.46,12.07-13.87-2.18-24.35-8.56-35.44-15.32-16.63-10.13-33.84-20.6-65.5-17.92-21.34,1.81-37.54,10.14-53.2,18.2-23.64,12.17-46,23.65-81.75,12.25-56.39-18-118.33-20.64-165.69-7.17-7.09,2-13.74,4.11-20.17,6.13-35.34,11.1-63.27,19.87-100.17-5.91-32.79-22.92-55.62-11.19-77.71.15a167.47,167.47,0,0,1-18.62,8.64c-16.05,5.89-34.26,12.56-77.65,1.19C21.93,192,8.37,188.62,5,187.84l-.05.19C3.46,187.61-1,186.31.21,181.9"/><path class="cls-4" d="M15.83,159.15c.11,0,11.43,4.76,56.1,11,67.08,9.38,87.85-5.42,104.53-17.33,11.8-8.42,22-15.69,43.24-11.51,11.61,2.29,23,8.94,35,16,22.07,12.91,44.89,26.26,74.55,17.82l7.79-2.23c47.73-13.7,107.12-30.74,173.51-10.44,42.46,13,64.49.68,87.81-12.35,15.44-8.63,31.4-17.54,53.52-19.42,35.07-3,60.3,9.9,82.57,21.25,12.72,6.49,24.73,12.61,36.61,14.47,17.61,2.76,25.17-2.76,35.64-10.41,7.89-5.77,16.85-12.31,31.62-16.37.77-.21,1.53-.37,2.28-.54v9.42c-13.06,3.61-20.91,9.34-28.5,14.89-10.85,7.93-21.11,15.42-42.46,12.06-13.32-2.09-26-8.53-39.35-15.35-21.18-10.8-45.2-23-77.63-20.28-20.15,1.7-34.57,9.75-49.83,18.28-24,13.39-48.76,27.24-95,13.11-63.79-19.51-121.74-2.88-168.3,10.49l-7.81,2.23c-33.42,9.51-59.06-5.49-81.69-18.72-11.34-6.64-22.06-12.91-32.15-14.89-17.36-3.43-25.24,2.19-36.14,10-17.06,12.17-40.41,28.83-111.13,18.94-46.72-6.54-58.1-11.52-58.57-11.73Z"/><path class="cls-2" d="M13.84,130.16c.29.07,29,7,35.11,8.3C61,141,81.64,144.23,111.3,144.77c23.64.42,34-7.12,46-15.86,10.94-7.93,23.34-16.93,46.81-19.14,23.18-2.17,42.76,9.45,61.69,20.69C287,143,306.9,154.84,330.92,148c38.53-11,135-34.27,198.2-14.13,31.16,9.93,50.47-2.33,72.83-16.52,16.94-10.76,34.46-21.88,58.57-23.92,34.29-2.91,53.53,12,70.49,25.15,11,8.5,20.44,15.84,32.64,17.76,17.6,2.76,25.16-2.77,35.63-10.42,7.9-5.77,16.85-12.31,31.62-16.37a44.24,44.24,0,0,1,9.71-1.57v9.17a36.16,36.16,0,0,0-7.28,1.24c-13.15,3.61-21,9.36-28.64,14.93-10.85,7.93-21.1,15.41-42.46,12.07-14.53-2.28-25.37-10.68-36.83-19.57C709,113.1,692,100,661.29,102.56c-21.86,1.85-38.42,12.36-54.43,22.52-22.26,14.14-45.28,28.75-80.52,17.53-62.55-19.93-163.48,5.83-192.92,14.21-27.81,7.91-50.41-5.51-72.27-18.48C242.66,127.37,225.2,117,205,118.9c-21,2-31.33,9.48-42.28,17.43-12.25,8.89-25,18.1-51.58,17.6-30.39-.55-51.63-3.85-64.09-6.51-6.22-1.33-34.16-8.06-35.34-8.35Z"/><path class="cls-1" d="M2073.73,245.72c-5.46-3.25-11.92-8.57-19.39-14.74-19.64-16.22-46.55-38.43-69.43-32-101,28.13-121.44,17.7-141.25,7.61-12.57-6.39-24.45-12.44-59.54-8.06-14.9,1.85-27.12,7.31-38.94,12.58-15.11,6.74-30.75,13.73-51.35,12.88-69.53-2.8-107.36-20.2-137.76-34.18-20.41-9.39-36.53-16.8-56.45-17.09-23.88-.35-47.6,10.61-70.52,21.2-19.58,9-38.07,17.59-56.53,19.44-20.76,2.08-35.47-6.21-48.46-13.53s-24.43-13.76-40.21-9.57c-13.6,3.62-21.75,9.37-29.63,14.94-6.88,4.86-13.54,9.54-22.74,11.68v-9.5c6.26-1.91,11.26-5.43,17.15-9.58,8.17-5.78,17.43-12.32,32.71-16.37,19.61-5.21,33.79,2.77,47.49,10.49,12.31,6.93,25.07,14.09,42.72,12.32,16.82-1.68,34.59-9.89,53.41-18.59,23.91-11,48.53-22.46,74.75-22.1,22,.32,39.78,8.51,60.39,18,29.62,13.63,66.48,30.58,134.07,33.31,18.34.75,32.25-5.47,47-12,12.46-5.56,25.35-11.32,41.69-13.35,38.08-4.75,51.85,2.26,65.18,9.05,18.15,9.24,36.92,18.79,134.2-8.32,27.78-7.74,56.94,16.32,78.22,33.89,7.17,5.92,13.36,11,18.2,13.91"/><path class="cls-3" d="M1231.53,174.33c6.26-1.91,11.26-5.43,17.15-9.59,8.17-5.77,17.43-12.31,32.71-16.36,19.61-5.22,33.78,2.77,47.49,10.48,12.31,6.93,25,14.1,42.72,12.33,16.64-1.66,33.83-8.08,52-14.87,23.82-8.89,48.44-18.07,74.8-17.7,26,.37,55.61,10.81,81.1,21l2.82,1.15c12.28,5,49.64,20.27,88.18,26.71,27,4.52,46.6-3.62,71.37-13.94,4-1.68,8.17-3.4,12.48-5.13,48.85-19.6,79.48-7.56,106.51,3,19.45,7.64,37.83,14.85,61.21,9.56,12.94-2.94,22.56-5.83,31-8.38,14.33-4.31,26.7-8,48.14-9.88,33.37-2.88,75.54,48.86,76,49.38l-7.51,5.59c-12.56-15.78-45.68-47.76-67.61-45.84-20.43,1.76-31.78,5.17-46.16,9.5-8.64,2.6-18.43,5.54-31.7,8.55-26.32,6-47-2.14-66.94-10-26.57-10.44-54-21.23-99.31-3.08-4.27,1.71-8.38,3.42-12.36,5.08-25.18,10.49-46.93,19.54-76.74,14.56-39.61-6.62-77.72-22.19-90.24-27.3l-2.76-1.12c-24.65-9.82-53.16-19.92-77.62-20.27S1450,156.29,1427,164.87c-18.81,7-36.56,13.65-54.47,15.44-20.76,2.08-35.47-6.21-48.46-13.53s-24.43-13.76-40.21-9.57c-13.6,3.61-21.75,9.37-29.63,14.93-6.88,4.86-13.54,9.55-22.74,11.68Z"/><path class="cls-4" d="M1231.53,144.46c6.26-1.91,11.27-5.42,17.15-9.58,8.17-5.77,17.43-12.31,32.71-16.37,19.61-5.21,33.78,2.77,47.49,10.49,12.31,6.93,25,14.1,42.72,12.33,15.94-1.6,33-6,51-10.59,25.95-6.65,52.8-13.54,80-13.14,42.59.62,69.9,11.56,96.31,22.14,21.38,8.56,41.56,16.65,69.53,19.71,47.58,5.21,65.31-2.18,84.07-10,9.91-4.14,20.16-8.41,34.77-10.6,39.26-5.89,56.73,2.75,73.62,11.12,23.34,11.55,45.39,22.47,131.7-9.81,38.39-14.36,67.68,18.72,87.08,40.61,1.95,2.2,3.81,4.31,5.59,6.26l-7.11,6.05c-1.81-2-3.7-4.11-5.68-6.35-18.71-21.11-44.35-50-76.46-38-90.27,33.76-115.27,21.38-139.44,9.41-16.26-8.05-31.62-15.65-67.85-10.22-13.42,2-22.67,5.87-32.46,10-19.08,8-38.8,16.19-88.9,10.7-29.29-3.21-51.05-11.93-72.08-20.36-25.59-10.25-52-20.85-92.83-21.44-25.79-.34-52.07,6.34-77.4,12.84-18.42,4.72-35.81,9.18-52.5,10.84-20.76,2.08-35.47-6.21-48.46-13.52s-24.43-13.76-40.21-9.57c-13.6,3.61-21.75,9.36-29.63,14.93-6.88,4.86-13.54,9.54-22.74,11.68Z"/><path class="cls-2" d="M1231.53,111.05c3.13-1.77,6.16-3.91,9.47-6.25,8.17-5.77,17.43-12.31,32.71-16.36,18.81-5,32.56,2.46,47.1,10.36,15,8.13,32,17.35,59.73,17.59,28.57.27,47-7,64.87-13.9,17.16-6.68,33.38-13,56.2-12,53.33,2.29,90.05,16.88,122.45,29.75,39.21,15.57,70.18,27.88,113.93,8.84,39-16.95,85.37-28,160.63,5.61,22.93,10.24,43.76,1.57,65.82-7.62,34.54-14.39,73.69-30.69,125.57,26l-7.09,6.07c-47.34-51.71-80.08-38.08-114.73-23.64-23,9.57-46.77,19.47-73.54,7.51-75.39-33.67-118.39-20.53-152.77-5.57-47.47,20.66-81.74,7-121.42-8.72-31.68-12.58-67.59-26.85-119.27-29.07-20.78-.89-36.06,5.06-52.25,11.36-17.86,7-38.17,14.83-68.48,14.56s-49.1-10.52-64.29-18.76c-14.45-7.85-24.89-13.52-40-9.52-13.6,3.61-21.74,9.37-29.63,14.93-4.81,3.41-9.52,6.72-15.06,9.14Z"/></g></g></g></svg>