<svg xmlns="http://www.w3.org/2000/svg" viewBox="0 0 142.6 118.73"><defs><style>.cls-1{fill:#3914af;}.cls-2{fill:#eb1111;}.cls-3{fill:#ffd300;}.cls-4{fill:#0c0;}</style></defs><title>Ресурс 1</title><g id="Слой_2" data-name="Слой 2"><g id="Слой_3" data-name="Слой 3"><path class="cls-1" d="M41.18,82.53a9.13,9.13,0,0,1,7.36-3,9.19,9.19,0,0,1,7.38,3,11.45,11.45,0,0,1,2.61,7.74A11.44,11.44,0,0,1,55.92,98a9.21,9.21,0,0,1-7.38,3,9.16,9.16,0,0,1-7.36-3,11.43,11.43,0,0,1-2.6-7.76,11.45,11.45,0,0,1,2.6-7.74M44,95.69a5.34,5.34,0,0,0,4.54,2.11,5.38,5.38,0,0,0,4.57-2.11,10,10,0,0,0,0-10.84,5.38,5.38,0,0,0-4.57-2.11A5.34,5.34,0,0,0,44,84.85a10,10,0,0,0,0,10.84"/><path class="cls-1" d="M74.78,79.8a1.68,1.68,0,0,1,1.35.53,1.92,1.92,0,0,1,.47,1.35V98.9a1.85,1.85,0,0,1-.47,1.33,2,2,0,0,1-2.7,0A1.89,1.89,0,0,1,73,98.9V83.05H67.34A56.78,56.78,0,0,1,66,96.26a8.33,8.33,0,0,1-1.77,3.34,3.74,3.74,0,0,1-2.88,1.3,2.36,2.36,0,0,1-1.88-.68,1.77,1.77,0,0,1-.37-1.69c.18-.73.77-1.09,1.76-1.09s1.51-.68,1.92-2Q63.84,91.8,64,81.68a2,2,0,0,1,.49-1.38,1.57,1.57,0,0,1,1.24-.5Z"/><path class="cls-1" d="M84.56,94.4l9.81-13.57a2.18,2.18,0,0,1,1.76-1c1.16,0,1.73.62,1.73,1.88V98.9a2,2,0,0,1-.45,1.33,1.68,1.68,0,0,1-1.34.52,1.76,1.76,0,0,1-1.38-.53,1.92,1.92,0,0,1-.47-1.32V86.2L84.35,99.69a2.23,2.23,0,0,1-1.7,1.06,1.69,1.69,0,0,1-1.28-.48,2,2,0,0,1-.45-1.37V81.68a2,2,0,0,1,.45-1.35,2,2,0,0,1,2.72,0,1.92,1.92,0,0,1,.47,1.35Z"/><path class="cls-1" d="M112.2,90.76,118.27,81a2.11,2.11,0,0,1,1.8-1.15,1.59,1.59,0,0,1,1.26.51,2.07,2.07,0,0,1,.44,1.37V98.9a1.89,1.89,0,0,1-.47,1.33,2,2,0,0,1-2.69,0,1.86,1.86,0,0,1-.49-1.33V86.54l-4.43,7.17a1.86,1.86,0,0,1-3.37,0l-4.5-7V98.9c0,1.23-.56,1.85-1.7,1.85s-1.7-.62-1.7-1.85V81.71a2,2,0,0,1,.47-1.44,1.66,1.66,0,0,1,1.23-.47A2.17,2.17,0,0,1,106,81Z"/><path class="cls-1" d="M126.32,81.68a2,2,0,0,1,.47-1.35,1.68,1.68,0,0,1,1.33-.53h12.66a1.68,1.68,0,0,1,1.35.53,1.92,1.92,0,0,1,.47,1.35V98.9a1.85,1.85,0,0,1-.47,1.33,2,2,0,0,1-2.7,0A1.89,1.89,0,0,1,139,98.9V83h-9V98.9a1.82,1.82,0,0,1-.49,1.33,1.72,1.72,0,0,1-1.33.52,1.74,1.74,0,0,1-1.36-.52,1.89,1.89,0,0,1-.47-1.33Z"/><path class="cls-1" d="M39.78,108.82a4.47,4.47,0,0,1,6.34,0,5.36,5.36,0,0,1,0,6.61,4.49,4.49,0,0,1-6.34,0,5.36,5.36,0,0,1,0-6.61m.78,6a3.36,3.36,0,0,0,4.78,0,4.56,4.56,0,0,0,0-5.36,3.36,3.36,0,0,0-4.78,0,4.56,4.56,0,0,0,0,5.36"/><path class="cls-1" d="M54.7,105.37c-.59.21-1.07.4-1.44.56L53,106c-.45.18-.82.34-1.09.48a7,7,0,0,0-1,.7,3.25,3.25,0,0,0-.9,1.27,6,6,0,0,0-.37,1.88,3.67,3.67,0,0,1,1.52-1.75,4.16,4.16,0,0,1,2.11-.56,3.51,3.51,0,0,1,2.9,1.24,4.73,4.73,0,0,1,1,3.09A4.37,4.37,0,0,1,56,115.51a4,4,0,0,1-3,1.23q-4.23,0-4.23-5.33a9.61,9.61,0,0,1,.42-3.11,4.58,4.58,0,0,1,1.35-2,9.23,9.23,0,0,1,2.61-1.4l1-.38c.62-.23,1.06-.41,1.34-.52.45-.21.73-.19.85.07s0,.54-.39.76-.68.29-1.26.51m-4,9.53a3.26,3.26,0,0,0,4.54,0,3.5,3.5,0,0,0,.84-2.45,3.64,3.64,0,0,0-.81-2.47,3.19,3.19,0,0,0-4.53,0,3.69,3.69,0,0,0-.86,2.53,3.46,3.46,0,0,0,.82,2.4"/><path class="cls-1" d="M58.29,108.63c-.33,0-.49-.16-.49-.47a.46.46,0,0,1,.14-.34.48.48,0,0,1,.35-.14h2.5c.34,0,.51.2.51.58v2.59a10.66,10.66,0,0,1,1.63-.14q3.62,0,3.62,2.93a2.94,2.94,0,0,1-.15.94,3.49,3.49,0,0,1-.54,1,2.59,2.59,0,0,1-1.18.8,5.39,5.39,0,0,1-2,.31,8.4,8.4,0,0,1-1.94-.16.62.62,0,0,1-.51-.65v-7.21Zm6.46,6.62a2.09,2.09,0,0,0,.09-3.13,3.44,3.44,0,0,0-2-.47,14.84,14.84,0,0,0-1.56.11v3.87c.53.05,1,.08,1.32.08a4.16,4.16,0,0,0,2.13-.46"/><path class="cls-1" d="M74.05,115.25c.35-.16.59-.13.72.1s.08.48-.21.68a4.94,4.94,0,0,1-2.76.71,4,4,0,0,1-3.13-1.19,5,5,0,0,1-1-3.37,5.05,5.05,0,0,1,1.1-3.36,3.75,3.75,0,0,1,3-1.32,3.25,3.25,0,0,1,2.57,1,3.55,3.55,0,0,1,.89,2.43,4.58,4.58,0,0,1-.06.78.89.89,0,0,1-1,.89H68.65a3.52,3.52,0,0,0,.93,2.36,3,3,0,0,0,2.22.83,5,5,0,0,0,2.25-.55m-4.49-6a3.77,3.77,0,0,0-.91,2.4h5.56a3.89,3.89,0,0,0,0-.68,2.83,2.83,0,0,0-.68-1.88,2.47,2.47,0,0,0-1.89-.7,2.75,2.75,0,0,0-2.12.86"/><path class="cls-1" d="M75.75,116.05a.44.44,0,0,1,.12-.32.41.41,0,0,1,.28-.11h.61q1.33-1.94,1.33-7.43a.52.52,0,0,1,.13-.36.46.46,0,0,1,.36-.15H83a.59.59,0,0,1,.46.17.64.64,0,0,1,.16.41v7.36h.74a.41.41,0,0,1,.47.47v2.06c0,.39-.16.58-.47.58s-.47-.19-.47-.58v-1.59H76.69v1.59c0,.39-.15.58-.47.58s-.47-.19-.47-.58Zm2.16-.43h4.65v-7H79.08a19,19,0,0,1-1.17,7"/><path class="cls-1" d="M93,109.39l-5.43,6.92a.7.7,0,0,1-.53.25c-.34,0-.5-.2-.5-.58v-7.72c0-.38.16-.58.5-.58s.51.2.51.58v6.65l5.45-7a.67.67,0,0,1,.51-.26c.34,0,.51.2.51.58V116c0,.38-.17.58-.51.58s-.51-.2-.51-.58Z"/><path class="cls-1" d="M102.76,108.26c0-.38.17-.58.5-.58s.51.2.51.58V116c0,.39-.17.58-.51.58s-.5-.19-.5-.58v-3.53H97.43V116c0,.39-.17.58-.51.58s-.5-.19-.5-.58v-7.72c0-.38.17-.58.5-.58s.51.2.51.58v3.25h5.33Z"/><path class="cls-1" d="M112.14,115.25c.35-.16.59-.13.72.1s.08.48-.22.68a4.88,4.88,0,0,1-2.75.71,4,4,0,0,1-3.13-1.19,5,5,0,0,1-1.05-3.37,5.05,5.05,0,0,1,1.1-3.36,3.75,3.75,0,0,1,3-1.32,3.25,3.25,0,0,1,2.57,1,3.55,3.55,0,0,1,.89,2.43,4.58,4.58,0,0,1-.06.78.89.89,0,0,1-1,.89h-5.54a3.56,3.56,0,0,0,.92,2.36,3,3,0,0,0,2.23.83,5,5,0,0,0,2.25-.55m-4.49-6a3.72,3.72,0,0,0-.91,2.4h5.56a3.89,3.89,0,0,0,0-.68,2.83,2.83,0,0,0-.68-1.88,2.47,2.47,0,0,0-1.89-.7,2.75,2.75,0,0,0-2.12.86"/><path class="cls-1" d="M121.57,108.26c0-.38.17-.58.51-.58s.51.2.51.58V116c0,.39-.17.58-.51.58s-.51-.19-.51-.58v-3.53h-5.32V116c0,.39-.17.58-.51.58s-.51-.19-.51-.58v-7.72c0-.38.17-.58.51-.58s.51.2.51.58v3.25h5.32Z"/><path class="cls-1" d="M131.45,109.39,126,116.31a.68.68,0,0,1-.52.25c-.34,0-.51-.2-.51-.58v-7.72c0-.38.17-.58.51-.58s.5.2.5.58v6.65l5.46-7a.64.64,0,0,1,.5-.26c.34,0,.51.2.51.58V116c0,.38-.17.58-.51.58s-.5-.2-.5-.58Z"/><path class="cls-1" d="M140.83,115.25c.35-.16.59-.13.72.1s.07.48-.22.68a4.9,4.9,0,0,1-2.75.71,4,4,0,0,1-3.13-1.19,5,5,0,0,1-1-3.37,5.05,5.05,0,0,1,1.1-3.36,3.75,3.75,0,0,1,3-1.32,3.25,3.25,0,0,1,2.57,1,3.55,3.55,0,0,1,.89,2.43,4.58,4.58,0,0,1-.06.78.89.89,0,0,1-1,.89h-5.54a3.56,3.56,0,0,0,.92,2.36,3,3,0,0,0,2.23.83,5,5,0,0,0,2.25-.55m-4.49-6a3.72,3.72,0,0,0-.91,2.4H141a3.89,3.89,0,0,0,0-.68,2.83,2.83,0,0,0-.68-1.88,2.47,2.47,0,0,0-1.89-.7,2.75,2.75,0,0,0-2.12.86"/><path class="cls-2" d="M24.37,115.68c3.12-11.19,5.37-22.59,8.46-33.78a82,82,0,0,1,4.72-13.83,11.86,11.86,0,0,1,2.33-3.59c.06,0,.41-.33,0-.06a3.28,3.28,0,0,1,.31-.2c.37-.23-.25,0,.29-.11.37-.09-.42,0-.05,0a4,4,0,0,1,.78.05,4.3,4.3,0,0,1,1.62.64c1.71,1,2.62,3.21,3.68,4.82,1.19,1.81,2.73,3.28,5,3.36,2.77.09,4.59-4,5.63-6,2.13-4,3.92-8.25,5.88-12.37,1.88-4,3.81-8.11,6.52-11.57a12.14,12.14,0,0,1,2.5-2.48,2,2,0,0,1,1.07-.46q.3-.06-.06,0a2.64,2.64,0,0,1,.4,0c.46,0-.37-.08.11,0l.46.13a7,7,0,0,1,1.43.72,17,17,0,0,1,1.94,1.43A49.19,49.19,0,0,1,82,46.8c6.58,7.1,12.14,15.09,17.94,22.82,1.34,1.77,4.36,0,3-1.76-6.81-9.07-13.26-18.81-21.54-26.63C79,39,75.44,35.74,71.84,36.87c-3.41,1.07-5.69,4.81-7.42,7.68A134.17,134.17,0,0,0,58,57.4a83.37,83.37,0,0,1-5.47,10.79,4.68,4.68,0,0,1-.89,1.13c-.41.42.09,0-.23.21s.19,0,.2,0c-.57,0-1-.34-1.44-.88a15.75,15.75,0,0,1-1.63-2.47c-1.21-2-2.64-3.91-4.81-4.85-1.7-.74-3.79-1-5.41,0-2.65,1.74-4,5.29-5.09,8.09a120.9,120.9,0,0,0-4.37,13.93c-2.78,10.42-4.91,21-7.81,31.39a1.74,1.74,0,0,0,3.36.93"/><path class="cls-3" d="M17.49,115.8c2.94-11,5.44-22.12,8.58-33.07a158.17,158.17,0,0,1,5.27-15.8c1.39-3.44,3.08-7.27,5.65-9.82a4.11,4.11,0,0,1,1.26-1l.38-.19c-.39.18,0,0,.09,0l.38-.1c.3-.06-.34,0,.17,0s0-.06.44,0a4.7,4.7,0,0,1,1.25.51,43.55,43.55,0,0,1,4,2.73c2.25,1.53,5.26,2.42,7.66.64a11.72,11.72,0,0,0,3-3.7c2.28-4,3.91-8.31,5.79-12.48s3.76-8.55,6.76-12a6,6,0,0,1,3.48-2.32c-.37.07.16,0,.2,0l.55,0a6.82,6.82,0,0,1,.85.17,9.29,9.29,0,0,1,2.35,1c4.15,2.22,7.5,6,10.54,9.47,6.4,7.38,11.61,15.65,17.12,23.68l.54.78c1.28,1.81,4.31.08,3-1.76-5.47-7.75-10.47-15.77-16.49-23.12A58.39,58.39,0,0,0,79.4,28.73c-3-2.14-6.82-3.83-10.42-2.23s-6,6-7.73,9.34c-2.34,4.4-4.19,9-6.25,13.57a54,54,0,0,1-2.73,5.43,10.78,10.78,0,0,1-1.06,1.52,5.48,5.48,0,0,1-.59.59c.33-.29.05-.05,0,0a2.07,2.07,0,0,1-1,.34c-1.24.07-2.48-.93-3.42-1.6a29.65,29.65,0,0,0-4-2.63,5.91,5.91,0,0,0-4.55-.38c-3.19,1.15-5.22,4.43-6.76,7.25a83.6,83.6,0,0,0-5.62,13.84C21.47,85,18.8,96.48,15.93,107.9c-.58,2.33-1.18,4.66-1.8,7s2.78,3.1,3.36.93"/><path class="cls-4" d="M10.48,115.8c3.61-12.07,6.46-24.35,9.79-36.49,1.57-5.74,3.23-11.46,5.22-17.07A48.81,48.81,0,0,1,30.92,50.6a9.9,9.9,0,0,1,1.21-1.43,3.48,3.48,0,0,1,1.26-.94c.39-.2-.35.12,0,0l.35-.1c.11,0,.51-.08,0,0h.35A6.66,6.66,0,0,1,38,49.21c.85.55,1.59,1.24,2.42,1.81A8,8,0,0,0,44,52.26a6.29,6.29,0,0,0,5.06-1.5c2.63-2.29,4.24-6,5.77-9,2.19-4.34,4.22-8.76,6.53-13,2-3.69,4.22-7.55,7.45-10.32a9.89,9.89,0,0,1,1.79-1.17,6.93,6.93,0,0,1,1.69-.48c.15,0,1,0,.58,0a6.66,6.66,0,0,1,.88.22,8.7,8.7,0,0,1,1.8.89c3.6,2.22,6.51,5.75,9.19,9,3.58,4.3,6.85,8.85,10,13.44,4.35,6.25,8.39,12.73,12.85,18.89,1.31,1.8,4.33.07,3-1.75-5.82-8-11-16.51-16.86-24.53A128.45,128.45,0,0,0,83.65,20.28c-2.53-2.68-5.51-5.64-9.12-6.76-3.43-1.06-6.77,1-9.14,3.29C62.18,20,59.9,24.06,57.81,28c-2.27,4.26-4.26,8.65-6.46,12.94A57.75,57.75,0,0,1,48.48,46a12.08,12.08,0,0,1-1.14,1.54,6.45,6.45,0,0,1-.63.65c-.42.41,0,.08-.46.36s.1,0-.29.13a5.49,5.49,0,0,1-1.62.11,4.64,4.64,0,0,1-2.66-1.1c-2.23-1.73-4.19-2.9-7.1-3.1-3.23-.23-5.51,2.46-7.11,4.92-2.47,3.77-4.06,8.17-5.55,12.4-2,5.65-3.63,11.43-5.21,17.21C13.45,91,10.65,103.05,7.12,114.87c-.64,2.16,2.72,3.08,3.36.93"/><path class="cls-1" d="M3.44,115.8C7,103.52,9.85,91.05,13,78.65c2.76-11,5.39-22.32,9.94-32.73a39.74,39.74,0,0,1,2.65-5.15,16.25,16.25,0,0,1,1.14-1.61c.21-.25.43-.49.65-.73s.81-.72.54-.51a7.74,7.74,0,0,1,.67-.44c.5-.29,0,0,.37-.17.15-.05.88-.16.33-.1a6.05,6.05,0,0,1,1.75.12c2.22.41,3.39,2.17,4.94,3.6,2.82,2.61,7.34,3.49,10.11.49,2.39-2.59,3.83-6.1,5.22-9.28C54.89,23.89,57.6,14.9,62.7,7.4a16.43,16.43,0,0,1,1.37-1.77,13.81,13.81,0,0,1,1.47-1.38,6.52,6.52,0,0,1,.8-.48c.06,0,.51-.22.12-.07l.41-.13c.56-.16.06-.06.49-.08a2.94,2.94,0,0,1,.42,0c.27,0-.22-.05.27,0,3.43.65,6.82,3.88,9.44,6.32A153.79,153.79,0,0,1,94.7,29.49c6,7.84,11.61,16,16.82,24.37,1.18,1.91,4.19.16,3-1.76A282.64,282.64,0,0,0,88.93,16.86,97.17,97.17,0,0,0,76.81,4.64c-2.59-2.1-6-4.82-9.59-4.63-3.36.18-5.77,3.08-7.53,5.63a66.77,66.77,0,0,0-6,11.66c-1.86,4.34-3.56,8.75-5.45,13.08-.79,1.81-1.62,3.62-2.56,5.36-.38.69-.78,1.36-1.2,2a7.36,7.36,0,0,1-1.11,1.4c-.51.54-.23.35-.9.69.59-.3-.62.08.11,0a6,6,0,0,1-1.89-.16c-2.1-.45-3.25-2.31-4.76-3.65-3-2.66-7.4-3.17-10.52-.57-2.61,2.18-4.2,5.66-5.54,8.7a124.24,124.24,0,0,0-5.18,14.65C9.17,77.32,5.47,96.32.08,114.87c-.63,2.16,2.73,3.08,3.36.93"/></g></g></svg>